<?xml version="1.0" encoding="utf-8"?>
<!-- Generator: Adobe Illustrator 23.0.1, SVG Export Plug-In . SVG Version: 6.00 Build 0)  -->
<svg version="1.1" xmlns="http://www.w3.org/2000/svg" xmlns:xlink="http://www.w3.org/1999/xlink" x="0px" y="0px"
	 viewBox="0 0 1920 1080" style="enable-background:new 0 0 1920 1080;" xml:space="preserve">
<style type="text/css">
	.st0{fill:#019BC0;}
	.st1{fill:#3D113C;}
	.st2{fill:#006E9F;}
	.st3{fill:none;}
	.st4{fill:none;stroke:#151F42;stroke-miterlimit:10;}
	.st5{fill:#185A88;}
	.st6{fill:#9E4A56;}
	.st7{fill:#068DB4;}
	.st8{fill:#FFFBC7;}
	.st9{fill:#4B091D;}
	.st10{fill:#393966;}
	.st11{fill:#0A3851;}
	.st12{fill:#FCB095;}
	.st13{fill:#CC8C79;}
	.st14{fill:#FFFDEC;}
	.st15{fill:#8B6239;}
	.st16{fill:#FFC09F;}
	.st17{fill:#0E3C3F;}
	.st18{fill:#EFAD65;}
	.st19{fill:#FFFAC2;}
	.st20{fill:#D06459;}
	.st21{fill:#FFAE8F;}
	.st22{fill:#FFFFFF;}
	.st23{fill:#2A7DE2;}
	.st24{fill:#D28A82;}
	.st25{fill:#000B29;}
	.st26{fill:#E53725;}
	.st27{fill:#F57D73;}
	.st28{fill:#B2204A;}
	.st29{fill:#C0CAD8;}
	.st30{fill:#060042;}
	.st31{font-family:'AkzidenzGroteskPro-Md';}
	.st32{font-size:20px;}
</style>
<g id="Layer_21">
	<polygon class="st0" points="1920,-0.33 1920,1080 0,1080 0,1080.51 1920.55,1080.51 1920.55,-0.33 	"/>
	<rect x="0" y="-0.33" class="st0" width="1920" height="1080.33"/>
</g>
<g id="Layer_30">
	<rect x="-0.5" y="373.31" class="st1" width="1921.05" height="707.53"/>
</g>
<g id="Layer_51">
	<g>
		<path class="st2" d="M606.5,210.21c-1.24-3.96-2.91-7.33-5.2-9.84C602.93,203.42,604.67,206.72,606.5,210.21z"/>
		<path class="st2" d="M701.69,472.94c0.54-0.02,1.03-0.05,1.45-0.11C696.16,468.25,697.48,470.05,701.69,472.94z"/>
		<path class="st2" d="M236.71,30.61c23.89,4.03,18.61,2.68,31.48-3.36c-7.35,28.2-35,49.33-91.97,73.5
			c22.05,8.06,47.78,8.06,77.19-6.04c-14.7,22.16-33.08,40.28-55.13,54.38c22.05,2.01,42.27-2.01,62.48-16.11
			c-22.05,42.3-64.32,72.51-123.13,94.67c33.08,14.1,64.32,16.11,97.4,6.04c-23.89,20.14-53.29,32.23-88.21,34.24
			c11.03,8.06,31.24,8.06,60.65,4.03c-34.92,30.21-79.02,50.36-130.48,60.43c25.73,22.16,60.65,26.18,104.75,10.07
			C48.33,406.15,14.14,481.93,93.06,471.4c57.53-7.68,83.34,8.03,164.42,5.83c135.09-3.67,127.24,45.59,197.68,21.71
			c122.71-41.6,225.1-25.14,246.53-25.99c-4.21-2.9-5.52-4.69,1.45-0.11c-0.42,0.05-0.92,0.08-1.45,0.11
			c6.88,4.73,21.5,12.39,20.36-0.11c36.76,16.11-17.43-110.19,24.84-126.3c-74.18-7.78-116.03-89.81-140.39-136.32
			c5.88,18.76,2.17,50.85,9.51,68.66c7.06,4.9,13.98,9.19,20.63,12.71c-10.99,1.15-17.09-4.13-20.63-12.71
			c-49.51-34.39-106.05-98.97-126.95-139.51c11.03,12.08,25.73,16.11,44.11,14.1c-23.89-16.11-36.76-34.24-42.27-50.35
			c18.38,16.11,22.65,19.82,61.25,7.73c-64.32-20.14-37.15,0.81-59.2-43.51c23.89,20.14,20.82-22.28,44.71-30.33
			c-13.71-8.09-27.79-21.1-41.74-37.84H264.99C256.13,11.1,246.7,21.69,236.71,30.61z"/>
		<path class="st2" d="M636.64,291.59c-6.65-3.52-13.57-7.81-20.63-12.71C619.55,287.46,625.65,292.73,636.64,291.59z"/>
	</g>
</g>
<g id="Layer_23">
	<g>
		<path class="st2" d="M742.93,526.1c-1.09,4.7-19.21,13.85-24.8,15.16s-18.72,0.91-18.72,0.91v14.24h45.22
			c0,0,11.91-7.06,16.78-6.79c4.86,0.26,4.25,6.79,4.25,6.79l14.83-0.52v-32.67C780.5,523.23,744.03,521.4,742.93,526.1z"/>
		<path class="st2" d="M844.19,526.89c-1.7,10.71-4.86,10.45-4.86,10.45c-11.67,2.35-12.28,16.85-12.28,16.85h53.73l-4.86-30.97
			C875.92,523.23,845.89,516.17,844.19,526.89z"/>
		<path class="st2" d="M735.46,120.54c0,0-10.37,116.21-7.96,168.81c1,21.93,1.25,243.15,1.25,243.15l58.97,3.89
			c0,0,9.08-208.77,10.26-226.77c4.07-62.15,10.06-98.35,10.06-98.35l4.66,332.57l74.51,16.69l0.2-409.93l-78.17-61.74
			L735.46,120.54z"/>
		<polygon class="st2" points="848.66,-0.84 811.43,-0.84 834.45,31.12 		"/>
		<path class="st2" d="M727.34,69.53c5.63,11.56-5.97,45.63-0.21,44.62l34.2,27.8l126.08,22.29v-74.7
			c22.32,0,40.41-18.09,40.41-40.41V-0.84h-79.17l-14.21,31.96L821.88-0.84h-98.52C722.9,13.4,721.92,58.39,727.34,69.53z"/>
	</g>
	<g>
		<path class="st2" d="M1837.45,455.24h-653.49c-4.99,0-9.08,3.98-9.09,8.84l-0.12,68.79c-0.01,4.87,4.06,8.84,9.06,8.84h653.65
			c4.99,0,9.07-3.97,9.07-8.84v-68.79C1846.53,459.22,1842.45,455.24,1837.45,455.24z"/>
	</g>
	<g>
		<polygon class="st3" points="735.88,92.34 746.88,69.49 736.71,24.98 		"/>
		<path class="st4" d="M734.11,176.21c0.84-34.5,1.5-62.07,1.5-62.07l0.27-21.8l-29.84,61.99L734.11,176.21z"/>
		<g>
			<path class="st3" d="M734.11,176.21c0.84-34.5,1.5-62.07,1.5-62.07l0.27-21.8l-29.84,61.99L734.11,176.21z"/>
			<polygon class="st3" points="735.88,92.34 746.88,69.49 736.71,24.98 			"/>
			<path class="st3" d="M679.3,304.74c-3.73-8.22-4.48-82.78-4.48-82.78s-22.54,45.78-33.2,64.7c-1.26,2.24-2.14,5.33-2.75,8.69
				c-2.26,12.5,0.05,25.4,6.04,36.6l37.58,70.27l2.24-67.64c0.29-8.73-0.9-17.48-3.79-25.73
				C680.43,307.43,679.89,306.04,679.3,304.74z"/>
			<path class="st5" d="M735.88,92.34l-0.27,21.8c0,0-0.66,27.57-1.5,62.07l7.27-28.84L735.88,92.34z"/>
			<path class="st5" d="M628.19,103.19c0,0-44.66,162.12-53.42,181.1s0,37.97,0,37.97s21.17,45.11,39.6,90.07
				c17.91,43.71,62.08,68.02,64.46,70.22c4.75,4.38,7.53,26.85,7.17,34.88c-0.37,8.03-33.09,18.79-34.55,23.9
				c-1.46,5.11,6.57,6.57,12.41,5.84c5.84-0.73,30.67-18.99,42.17-18.44c11.5,0.55,21.05-7.74,22.15-15.47
				c1.1-7.73,1.95-190.46,2.5-203.06c0.34-7.71,7.8-79.51,9.12-134c0.84-34.5-4.19-62.07-4.19-62.07l0.27-21.8l0.83-67.36
				l10.17,44.51l-11,22.85l5.5,55.03l-7.27,28.84l5.39,4.2c0,0,44.12-92.92,47.4-107.17c2.34-10.15-0.88-45.93-3.32-74.09H601
				c-8.74,36.88-16.94,74.01-16.94,74.01L628.19,103.19z M638.87,295.36c0.61-3.37,1.49-6.45,2.75-8.69
				c10.66-18.92,27.68-64.99,27.68-64.99s6.69,74.67,10,83.07c0.15,0.38,0.28,0.71,0.4,1.01c3.04,7.66,5.3,20.67,5.03,28.91
				l-2.24,67.57l-37.58-70.27C638.92,320.76,636.61,307.86,638.87,295.36z"/>
		</g>
	</g>
	<path class="st6" d="M686,517.44c-1.08,4.64-18.96,13.67-24.48,14.96c-5.52,1.29-18.48,0.9-18.48,0.9v14.06h44.63
		c0,0,11.76-6.96,16.56-6.71c4.8,0.26,4.2,6.71,4.2,6.71l14.64-0.52v-32.24C723.08,514.61,687.08,512.8,686,517.44z"/>
	<path class="st5" d="M679.77,474.34c1.56,4.5-8.76,21.67-12.75,25.7c-3.98,4.03-15.16,10.61-15.16,10.61l7.49,11.9l37.77-23.77
		c0,0,6.24-12.16,10.44-14.5c4.2-2.34,7.13,3.44,7.13,3.44l12.11-8.23l-17.17-27.29C709.64,452.19,678.21,469.83,679.77,474.34z"/>
	<path class="st7" d="M484.14,501.64c-0.12,0.16-0.19,0.27-0.19,0.27S484.02,501.81,484.14,501.64z"/>
	<path class="st7" d="M509.93,366.63c0.51-12.05,7.28-35.71,10.44-46.55c5.11-17.53-3.65-119.03-3.65-119.03
		s-28.46-71.94-29.27-43.41c-0.81,28.54-12.26,172.57-12.26,172.57s-2.74,19.17-9.31,46.55c-6.57,27.38,24.14,82.42,28.16,100.31
		c1.69,7.49-8.41,22.42-9.9,24.57c0.68-0.91,3.3-3.8,8.48-2.56c6.12,1.46,35.97,40.62,35.97,40.62s-5.47-23.37-8.22-37.61
		C517.63,487.85,509.41,378.68,509.93,366.63z"/>
	<path class="st2" d="M478.93,59.01l-8.81-22.23l-2.15-30.81l-21.18,85c-1.5,9.27,5.74,17.64,15.13,17.48
		c11.38-0.19,24.65-0.9,28.53-3.13c1.89-1.85,79.31-47.88,86.95-51.63c7.64-3.75-4.62-18.71-4.62-18.71L478.93,59.01z"/>
	<path class="st2" d="M619.82,22.22l-4.44-4.81l-1.47-10.61c0,0-0.61-1.56-1.84-1.06c-0.59,0.24-1.07,0.99-1.45,1.89
		c-0.08,0.33-0.2,0.68-0.38,1.03c-0.22,0.67-0.4,1.34-0.53,1.9c-0.4,1.65-1.23,5.53-1.23,5.53c-1.49,2.32-9.87,8.23-11.92,8.15
		c-2.06-0.08-0.75-3.11-0.07-3.98c0.68-0.87,6.41-4.93,7.6-5.63c1.2-0.71,4.56-3.23,6.02-5.71c0.05-0.08,0.09-0.17,0.13-0.25
		c0.11-0.35,0.24-0.7,0.38-1.03c0.45-1.95-0.58-3.56-0.58-3.56s-3.87,2.31-5.39,3.03c-1.52,0.72-3.4,0.98-5.14,1.31
		c-1.73,0.33-7.96,5.12-9.8,6.33c-1.84,1.22-2.71,1.43-4.48,4.3s-7.61,10.72-14.58,15.95s-39.21,15.65-39.21,15.65l-6.61,28.26
		c0,0,52.49-25.54,55.12-26.29c2.63-0.75,27.61-4.89,28.9-5.96c0.92-0.76,5.99-5.14,8.86-7.63c1.17-1.01,1.5-2.68,0.82-4.06
		l1.3-1.46c1.09-1.22,1.14-3.04,0.14-4.33l-1.13-1.45l0.78-0.72C621,25.74,621.09,23.6,619.82,22.22z"/>
	<path class="st2" d="M610.63,7.62c-0.14,0.33-0.27,0.67-0.38,1.03C610.43,8.3,610.56,7.95,610.63,7.62z"/>
	<path class="st8" d="M577.78,39.84l-85.93,29.65C491.85,69.49,563.78,45.09,577.78,39.84z"/>
	<path class="st8" d="M570.67,34.99"/>
	<path class="st5" d="M466.42,48.33c5.48,27.84,10.96,40.67,9.17,79.08c-0.7,15,68.05,19.87,78.73,17.13
		c10.68-2.74,3.56-19.17,4.11-33.14c0.55-13.97,14.24-36.15,20.8-50.94c6.56-14.79-10.94-42.99-10.94-42.99
		c-2.47-3.19-6.58-10.06-11.24-18.32h-87.12C465.38,13.23,462.9,30.42,466.42,48.33z"/>
	<path class="st7" d="M656.92,36.62c-0.09-0.44-0.44-0.7-0.88-0.7c-10.02,5.19-21.94,5.2-31.97,0.02l-0.03-0.02
		c-0.44,0-0.79,0.35-0.88,0.7l-3.69,21.63c-0.88,5.27,0.09,10.81,3.08,15.38c3.34,5.01,8.44,8.26,14.15,9.23
		c0.97,0.18,1.67,1.06,1.67,2.02v29.27c0,1.06-0.79,1.93-1.76,2.02l-10.37,1.41c-0.35,0-0.53,0.35-0.53,0.62v0.62
		c0,0.04,0.02,0.08,0.02,0.12h-0.02c0,2.01,6.4,3.63,14.29,3.63s14.29-1.63,14.29-3.63h-0.02c0.01-0.04,0.02-0.08,0.02-0.12v-0.62
		c0-0.35-0.26-0.62-0.53-0.62l-10.29-1.41c-1.05-0.18-1.76-0.97-1.76-2.02V84.88c0-0.97,0.7-1.85,1.67-2.02
		c5.71-0.97,10.9-4.22,14.15-9.23c2.99-4.48,4.04-10.02,3.08-15.38L656.92,36.62z"/>
	<path class="st2" d="M505.93,106.78c-0.38,9.32,7.71,16.82,16.95,15.57c11.34-1.53,21.08-4.93,28.11-6.53
		c22.66-5.18,80.83-25.82,80.83-25.82c4.51-1.24,18.42-6.03,23.29-10.27c3.51-3.06,8.37-13.76,10.81-19.49
		c1.01-2.37,1.56-4.91,1.65-7.49c0.03-0.78-0.85-1.24-1.48-0.79c-1.41,1.01-4.08,5.16-4.94,6.67l0,0.01
		c0.81-2.75,1.42-5.52,1.79-7.38c0.18-0.89-0.81-1.56-1.57-1.06c-0.01,0.01-0.03,0.02-0.04,0.03c-1.83,1.21-3.26,2.93-4.14,4.94
		l-1.73,3.92l-0.51-1.93c-0.12-0.44-0.66-0.62-1.01-0.33c-1.54,1.27-2.76,2.87-3.57,4.69c-1.87,4.19-5.25,11.04-7.68,11.82
		c-5.17,1.65-17.66,2.63-24.78,5.34c-0.08-0.01-0.14-0.02-0.14-0.02l-84.05,14.53l6.38-67.52c0,0,1.79-17.1,2.79-26.49h-32.25
		c-0.55,9.71-1.2,22.12-1.2,22.12L505.93,106.78z"/>
	<path class="st7" d="M628.08,296.34c-1.28-8.21-34.4-87.07-53.97-133.2c-8.27-19.49-14.11-33.14-14.11-33.14l-57.16,50.95
		l75.26,110.52c6.99,7.53,9.77,18.04,7.41,28.04c-3.93,16.66-9.73,42.88-11.83,60.8c-2.16,18.46,7.79,60.69,9.27,91.19
		c0.77,15.96-12.32,24.14-12.32,24.14l32.99,49.71h12.78c0,0,2.31-5.26-2.81-14.39c-5.11-9.13-6.69-50.61-5.96-65.58
		C608.36,450.43,629.91,308.03,628.08,296.34z"/>
	<path class="st5" d="M514.74,192.79c0.33,2.17,0.8,3.42,0.8,3.42L514.74,192.79z"/>
	<path class="st5" d="M539.63,130.01l-33.7,25.18l8.8,37.6c-0.98-6.39-0.82-20.77,15.75-34.97c22.2-19.03,37.48-9.15,37.48-9.15
		s-7.72-21.65-9.08-28.08C557.53,114.17,539.63,130.01,539.63,130.01z"/>
	<g>
		<path class="st9" d="M497.99,513.77l-4.86,11.39c0,0,5.16,4.36,7.89,7.49c2.35,2.7,4.78,5.42,5.58,11.79
			c0.64,5.14-0.88,10.12,0.32,12.67c1.19,2.55,26.05,4.94,26.05,4.94l-13.7-33.37L497.99,513.77z"/>
		<path class="st5" d="M541.01,542.84c-3.12-0.53-5.87,0.09-7.49-1c-5.45-3.67-9.52-15.53-14.38-22.02
			c-5.13-6.86-19.63-28.91-27.64-30.94c0,0-11.27,4.82-10.63,15.57c0.64,10.75,5.66,25.73,5.97,31.7
			c0.32,5.97,0.64,28.12,0.96,28.12s4.06,0,4.06,0s-0.12-21.52,0-24.53c0.09-2.25,2.63-19.44,13.38-14.02
			c10.75,5.42,16.89,20.95,18.32,23.5s5.73,12.11,9.4,12.82s12.03-1.35,14.58-4.5c2.55-3.15,2.95-6.73,2.99-7.77
			C550.56,548.74,548.69,544.14,541.01,542.84z"/>
	</g>
	<g>
		<path class="st9" d="M585.15,512.25l-4.86,11.39c0,0,5.16,4.36,7.89,7.49c2.35,2.7,4.78,5.42,5.58,11.79
			c0.64,5.14-0.88,10.12,0.32,12.66s26.05,4.94,26.05,4.94l-13.7-33.37L585.15,512.25z"/>
		<path class="st5" d="M628.16,541.33c-3.12-0.53-5.87,0.09-7.49-1c-5.45-3.67-9.52-15.53-14.38-22.02
			c-5.13-6.85-19.63-28.91-27.64-30.94c0,0-11.27,4.82-10.63,15.57c0.64,10.75,5.66,25.73,5.97,31.7
			c0.32,5.97,0.64,28.12,0.96,28.12s4.06,0,4.06,0s-0.12-21.52,0-24.53c0.09-2.25,2.63-19.44,13.38-14.02
			c10.75,5.42,16.89,20.95,18.32,23.5c1.43,2.55,5.73,12.11,9.4,12.82s12.03-1.35,14.58-4.5c2.55-3.15,2.95-6.73,2.99-7.77
			C637.72,547.22,635.84,542.62,628.16,541.33z"/>
	</g>
	<path class="st5" d="M554.33,144.54c0,0-20.94-4.01-38.27-13.71c-20.94-11.73-39.03-27.92-40.12-5.37
		c-1.03,21.45-88.39,149.04-88.39,149.04s71.34,4.39,83.17,19.17c41.33,51.66,173.85-12.57,173.85-12.57l-85.68-160.5L554.33,144.54
		z"/>
</g>
<g id="Layer_43">
	<rect x="1830.38" y="373.31" class="st10" width="89.62" height="190.05"/>
	<g>
		<g>
			<g>
				<path class="st11" d="M1717.34,373.31l-17.75-118.82c-27.06,12.18-24.36,50.07-24.36,50.07v254.39c0,0,3.39,7.45,27.07,7.45
					c20.26,0,173.78-2.23,217.71-2.88V373.31H1717.34z"/>
				<path class="st11" d="M1664.39,416.7c-2.47-1.03-5.23-1.63-8.15-1.63h-645.55c-9.7,0-17.74,6.41-18.79,14.58V305.73
					c0,0,2.71-37.89-24.36-50.07c-27.06-12.18-41.61-4.73-43.98-3.21c-2.37,1.52-17.59,8.12-23.85,23.17
					c-6.26,15.05-3.89,17.42-3.21,27.23c0.68,9.81,6.94,18.95,8.63,20.47c1.69,1.52,17.42,24.36,20.8,27.91
					c3.38,3.55,14.37,26.22,14.37,29.94c0,3.72,0,178.95,0,178.95s0.85,7.44,24.53,7.44s27.07-7.45,27.07-7.45
					s13.18-9.51,18.79-9.51l645.55,4.38c10.4,0,18.91-30.51,18.91-39.54v-83.99C1675.15,424.98,1670.74,419.36,1664.39,416.7z"/>
			</g>
			<polygon class="st2" points="1602.02,493.76 1675.15,552.39 1713.91,519.26 1663.2,503.8 			"/>
		</g>
		<rect x="934.37" y="201.89" class="st7" width="779.54" height="285.29"/>
		<g>
			<path class="st2" d="M1704.92,140.06H1444.1h-56.07h-52.17c-4.95,0-8.99,3.73-8.99,8.28v191.13c0,4.56,8.99,21.91,8.99,8.28
				v12.43h306.96c4.95-12.43,8.99-16.15,8.99-20.71v-36.61c0-4.56,23.52,6.26,23.42,1.7c0,0-22.19-22.12,6.65-36.07
				c13.45-6.5,23.03-19.88,23.03-19.88c4.95-0.18,8.99-4.06,8.99-8.62l0.01-91.66C1713.91,143.78,1709.87,140.06,1704.92,140.06z"/>
		</g>
		<g>
			<path class="st2" d="M1129.21,141l-28.1,25.5l-26.56-25.5h-84.11h-47.19c-4.95,0-8.99,3.73-8.99,8.28v76.02
				c0,4.56-0.23,5.36,7.45,6.81c0,0,13.26,2.25,26.71,8.75c28.84,13.95,28.13,46.38,28.13,46.38c-0.1,4.56-0.18,12.01-0.18,16.57
				v36.61c0,4.56,4.04,8.28,8.99,8.28h352.41h2.71L1342.66,141H1129.21z"/>
		</g>
		<path class="st2" d="M982.29,293.6c-0.85-11.84-5.1-33.29-24.23-41.9c-27.06-12.18-41.52-4.58-43.98-3.21
			c-3.83,2.14-17.59,8.12-23.85,23.17c-6.26,15.05-3.89,17.42-3.21,27.23c0.68,9.81,43.81,74.6,43.81,78.32
			c0,3.72,0,178.95,0,178.95s0.85,7.44,24.53,7.44s27.07-7.45,27.07-7.45v-45.98h710.53V292.32H982.29V293.6z"/>
		<path class="st2" d="M1734.08,247.32c-2.54-1.22-16.91-8.96-43.98,3.21c-25.27,11.37-24.59,45.15-24.38,49.59
			c0.02,0.37,0.03,0.74,0.03,1.12V538.4c0,12.8,10.04,23.43,22.83,23.96c1.34,0.06,2.75,0.09,4.24,0.09c0.24,0,0.47,0,0.7,0
			c13.19-0.08,23.82-10.8,23.82-23.99V376.04c0-3.5,33.67-55.17,42.45-74.96c0.85-1.93,1.78-3.94,2.38-5.96
			c2.62-8.88,1.15-14.56-4.24-24.63C1750.36,255.44,1737.17,248.81,1734.08,247.32z"/>
		<g>
			<path class="st2" d="M1656.23,348.7H1333.9c-5.19,0-9.44,4.05-9.44,8.99l0,0v46.06c0,4.95,4.25,8.99,9.44,8.99h322.33
				c5.19,0,9.44-4.04,9.44-8.99v-46.06C1665.67,352.74,1661.42,348.7,1656.23,348.7z"/>
		</g>
		<g>
			<path class="st2" d="M1316.48,347.75H993.26c-5.21,0-9.47,4.05-9.47,8.99l0,0v46.06c0,4.95,4.26,8.99,9.47,8.99h323.22
				c5.21,0,9.47-4.04,9.47-8.99v-46.06C1325.95,351.79,1321.69,347.75,1316.48,347.75z"/>
		</g>
		<path class="st2" d="M1544.35,222.83"/>
		<path class="st5" d="M1665.67,348.7c0,0-0.47-43.34,0-56.38v-14.63l-589.63,70.65L1665.67,348.7z"/>
		<g>
			<path class="st2" d="M1654.9,414.37l-667.83,109.6c3.47,3.39,8.52,5.55,14.13,5.55h645.55c10.4,0,18.91-7.37,18.91-16.4v-83.99
				C1665.67,422.65,1661.25,417.03,1654.9,414.37z"/>
			<path class="st5" d="M1001.2,412.74c-10.4,0-18.91,7.38-18.91,16.4h0v83.99c0,4.16,1.82,7.95,4.78,10.85l667.83-109.6
				c-2.47-1.03-5.23-1.63-8.15-1.63H1001.2z"/>
		</g>
	</g>
</g>
<g id="Layer_53">
	<g>
		<g id="XMLID_24_">
			<g>
				<path class="st7" d="M656.76,35.92c0,3.71-5.08,21.3-14.35,21.3c-9.27,0-19.22-17.59-19.22-21.3c0-3.71,7.5-6.7,16.77-6.7
					C649.26,29.22,656.76,32.21,656.76,35.92z"/>
			</g>
			<g>
			</g>
		</g>
	</g>
</g>
<g id="гирлянда">
	<g>
		<g>
			<path class="st12" d="M392.05,852.5c5.79,0,5.8-9,0-9C386.25,843.5,386.24,852.5,392.05,852.5L392.05,852.5z"/>
		</g>
	</g>
</g>
<g id="Layer_28">
	<g id="XMLID_7_">
		<g>
			<path class="st13" d="M465.63,774.37c-1.27,1.56-27.38-11.83-27.38-11.83s19-132.37,20.75-132.95
				c1.75-0.58,106.02-48.98,106.02-48.98c-3.86-0.99-4.71-3.55-4.51-8.05c0.05-1.06,0.33-2.1,0.83-3.03
				c4.45-8.3,14.78-10.08,23.54-12.82c27.22-8.51,50.49-13.8,79.34-16.67c1.88-0.18,5.8-0.44,6.16-2.81
				c0.12-0.8-0.27-1.58-0.91-2.07c-3.25-2.46-17.15-11.03-0.41-16.34c19.49-6.19,71.61-1.1,89.98,2.69
				c5.71,1.26,11.38,2.65,17.03,4.16l317.72,84.53l-1.93,8.03L806.2,598.5c-53.24-7.1-221.34-3.18-333.14,164.04
				C473.06,762.54,466.9,772.81,465.63,774.37z"/>
		</g>
		<g>
		</g>
	</g>
</g>
<g id="Layer_1">
	<g>
		<g id="XMLID_15_">
			<g>
				<path class="st14" d="M570.28,581.11c18.71-0.14,2.83,7.72,2.54,7.84c-44.77,18.15-63.19,31.78-97.29,57.79
					c-3.42,2.61-5.36,10.72,1.91,13.58c14.95,5.88-0.21,17.02-13.99,36.64c-40.53,57.73-2,78.98,5.75,70.89
					c0.44-0.47,1.81-2.37,3.86-5.3c-27.62,45.99-33.09,54.93-24.44,151.04l0.38,86.66c-2.4,21.23-72.54-31.92-71.36-11.24
					l-86.97-11.1V772.75c51.54-192.13,274.4-294.21,468.39-251.24c-18.37-3.79-70.49-8.88-89.98-2.69
					c-16.74,5.31-2.84,13.89,0.41,16.34c0.64,0.49,1.03,1.27,0.91,2.07c-0.36,2.37-4.28,2.62-6.16,2.81
					c-28.85,2.86-52.13,8.16-79.34,16.67c-8.76,2.74-19.09,4.52-23.54,12.82c-0.5,0.94-0.78,1.97-0.83,3.03
					C560.25,578.65,561.88,581.17,570.28,581.11z"/>
			</g>
			<g>
			</g>
		</g>
	</g>
	<g>
		<g>
			<path class="st10" d="M1296.05,953.16l9.26,9.48l3.31-3.23l-9.26-9.48C1297.58,949.97,1296.14,951.38,1296.05,953.16z"/>
			<path class="st13" d="M1310.02,957.68c-3.79-0.92-7.21,2.49-6.29,6.28l0.02,0.09c0.27,1.13,1.01,2.09,2.04,2.64
				c4.3,2.3,11.1,4.49,11.1,4.49s-1.79-6.14-4.12-11.22C1312.25,958.82,1311.24,957.98,1310.02,957.68z"/>
		</g>
		<g>
			<path class="st10" d="M1319.16,951.33l9.26,9.48l3.31-3.23l-9.26-9.48C1320.69,948.14,1319.25,949.55,1319.16,951.33z"/>
			<path class="st13" d="M1333.13,955.85c-3.79-0.92-7.21,2.49-6.29,6.28l0.02,0.09c0.27,1.13,1.01,2.09,2.04,2.64
				c4.3,2.3,11.1,4.49,11.1,4.49s-1.79-6.14-4.12-11.22C1335.36,956.99,1334.35,956.15,1333.13,955.85z"/>
		</g>
		<g>
			<path class="st10" d="M1339.17,946.37l9.26,9.48l3.31-3.23l-9.26-9.48C1340.7,943.19,1339.26,944.6,1339.17,946.37z"/>
			<path class="st13" d="M1353.14,950.9c-3.79-0.92-7.21,2.49-6.29,6.28l0.02,0.09c0.27,1.13,1.01,2.09,2.04,2.64
				c4.3,2.3,11.1,4.49,11.1,4.49s-1.79-6.14-4.12-11.22C1355.37,952.03,1354.36,951.19,1353.14,950.9z"/>
		</g>
		<g>
			<path class="st10" d="M1353.72,935.91l9.26,9.48l3.31-3.23l-9.26-9.48C1355.25,932.73,1353.81,934.13,1353.72,935.91z"/>
			<path class="st13" d="M1367.7,940.43c-3.79-0.92-7.21,2.49-6.29,6.28l0.02,0.09c0.27,1.13,1.01,2.09,2.04,2.64
				c4.3,2.3,11.1,4.49,11.1,4.49s-1.79-6.14-4.12-11.22C1369.92,941.57,1368.91,940.73,1367.7,940.43z"/>
		</g>
		<g>
			<g>
				<path class="st10" d="M744.56,875.94l0.11,13.25c1.31,1.2,3.33,1.18,4.62-0.04l-0.11-13.25L744.56,875.94z"/>
				<path class="st13" d="M746.75,861.72c0,0-3.28,6.35-4.71,11.01c-0.34,1.11-0.19,2.31,0.41,3.31l0.05,0.08
					c2.02,3.33,6.85,3.34,8.89,0.02c0.65-1.07,0.78-2.37,0.34-3.55C749.81,867.34,746.75,861.72,746.75,861.72z"/>
			</g>
			<g>
				<path class="st10" d="M734.16,893.36l0.11,13.25l4.62-0.04l-0.11-13.25C737.46,892.13,735.45,892.14,734.16,893.36z"/>
				<path class="st13" d="M740.95,906.4c-2.02-3.33-6.85-3.34-8.89-0.02c-0.65,1.07-0.78,2.37-0.34,3.55
					c1.93,5.25,4.99,10.86,4.99,10.86s3.28-6.35,4.71-11.01c0.34-1.11,0.19-2.31-0.41-3.31L740.95,906.4z"/>
			</g>
			<g>
				<path class="st10" d="M709.94,895.02l0.11,13.25l4.62-0.04l-0.11-13.25C713.25,893.78,711.23,893.8,709.94,895.02z"/>
				<path class="st13" d="M716.73,908.06c-2.02-3.33-6.85-3.34-8.89-0.02c-0.65,1.07-0.78,2.37-0.34,3.55
					c1.93,5.25,4.99,10.86,4.99,10.86s3.28-6.35,4.71-11.01c0.34-1.11,0.19-2.31-0.41-3.31L716.73,908.06z"/>
			</g>
			<g>
				<path class="st10" d="M692.58,896.04c-1.31-1.2-3.33-1.18-4.62,0.04l0.11,13.25l4.62-0.04L692.58,896.04L692.58,896.04z"/>
				<path class="st13" d="M694.75,909.12c-2.02-3.33-6.85-3.34-8.89-0.02c-0.65,1.07-0.78,2.37-0.34,3.55
					c1.93,5.25,4.99,10.86,4.99,10.86s3.28-6.35,4.71-11.01c0.34-1.11,0.19-2.31-0.41-3.31L694.75,909.12z"/>
			</g>
			<g>
				<path class="st10" d="M675.99,881.65l0.11,13.25c1.31,1.2,3.33,1.18,4.62-0.04l-0.11-13.25L675.99,881.65z"/>
				<path class="st13" d="M678.17,867.43c0,0-3.28,6.35-4.71,11.01c-0.34,1.11-0.19,2.31,0.41,3.31l0.05,0.08
					c2.02,3.33,6.85,3.34,8.89,0.02c0.65-1.07,0.78-2.37,0.34-3.55C681.23,873.04,678.17,867.43,678.17,867.43z"/>
			</g>
			<g>
				<path class="st10" d="M698.5,881.65l0.11,13.25h0c1.31,1.2,3.33,1.18,4.62-0.04l-0.11-13.25L698.5,881.65z"/>
				<path class="st13" d="M700.68,867.43c0,0-3.28,6.35-4.71,11.01c-0.34,1.11-0.19,2.31,0.41,3.31l0.05,0.08
					c2.02,3.33,6.85,3.34,8.89,0.02c0.65-1.07,0.78-2.37,0.34-3.55C703.74,873.04,700.68,867.43,700.68,867.43z"/>
			</g>
			<g>
				<path class="st10" d="M719.62,879.95l0.11,13.25c1.31,1.2,3.33,1.18,4.62-0.04l-0.11-13.25L719.62,879.95z"/>
				<path class="st13" d="M721.81,865.73c0,0-3.28,6.35-4.71,11.01c-0.34,1.11-0.19,2.31,0.41,3.31l0.05,0.08
					c2.02,3.33,6.85,3.34,8.89,0.02l0,0c0.65-1.07,0.78-2.37,0.34-3.55C724.87,871.35,721.81,865.73,721.81,865.73z"/>
			</g>
			<g>
				<path class="st10" d="M1147.9,909.84c0.88,1.55,2.8,2.15,4.41,1.39l3.99-12.64l-4.41-1.39L1147.9,909.84z"/>
				<path class="st13" d="M1150.42,893.28c-0.76,1-1.02,2.28-0.71,3.49l0,0c0.97,3.77,5.59,5.18,8.51,2.59l0.07-0.06
					c0.87-0.77,1.36-1.88,1.36-3.04c0-4.87-1.28-11.91-1.28-11.91S1153.8,888.83,1150.42,893.28z"/>
			</g>
			<g>
				<path class="st10" d="M1167.31,912.69l4.86,12.33l4.3-1.7l-4.86-12.33C1169.96,910.35,1168.08,911.09,1167.31,912.69z"/>
				<path class="st13" d="M1178.44,922.28c-3.13-2.32-7.61-0.5-8.24,3.35l-0.01,0.09c-0.19,1.15,0.12,2.32,0.86,3.22
					c3.07,3.78,8.49,8.44,8.49,8.44s0.73-6.35,0.55-11.94C1180.05,924.19,1179.45,923.02,1178.44,922.28z"/>
			</g>
			<g>
				<path class="st10" d="M1193.56,918.62l4.86,12.33l4.3-1.7l-4.86-12.33C1196.2,916.27,1194.33,917.01,1193.56,918.62z"/>
				<path class="st13" d="M1204.69,928.2L1204.69,928.2c-3.13-2.32-7.61-0.5-8.24,3.35l-0.01,0.09c-0.19,1.15,0.12,2.32,0.86,3.22
					c3.07,3.78,8.49,8.44,8.49,8.44s0.73-6.35,0.55-11.94C1206.3,930.11,1205.69,928.95,1204.69,928.2z"/>
			</g>
			<g>
				<path class="st10" d="M1219.64,928.73l4.86,12.33l4.3-1.7l-4.86-12.33C1222.28,926.38,1220.41,927.12,1219.64,928.73z"/>
				<path class="st13" d="M1230.77,938.31c-3.13-2.32-7.61-0.5-8.24,3.35l-0.01,0.09c-0.19,1.15,0.12,2.32,0.86,3.22
					c3.07,3.78,8.49,8.44,8.49,8.44s0.73-6.35,0.55-11.94C1232.38,940.22,1231.77,939.06,1230.77,938.31z"/>
			</g>
			<g>
				<g>
					<path class="st10" d="M902.8,775.66c1.3,1.21,3.32,1.21,4.62,0v-13.25h-4.62V775.66z"/>
					<path class="st13" d="M905.11,748.21c0,0-3.01,5.64-4.9,10.91c-0.42,1.18-0.29,2.48,0.37,3.55l0,0
						c2.07,3.3,6.89,3.25,8.89-0.09l0.05-0.08c0.6-1,0.74-2.2,0.39-3.31C908.44,754.53,905.11,748.21,905.11,748.21z"/>
				</g>
				<g>
					<path class="st10" d="M884.58,778.16l-7.15,11.16l3.89,2.49l7.15-11.16C888.03,778.93,886.33,777.84,884.58,778.16z"/>
					<path class="st13" d="M875.79,788.08l-0.08,0.04c-1.04,0.52-1.81,1.46-2.11,2.58c-1.27,4.71-1.87,11.83-1.87,11.83
						s5.58-3.13,10-6.54c0.99-0.77,1.58-1.94,1.6-3.19C883.37,788.89,879.27,786.33,875.79,788.08z"/>
				</g>
				<g>
					<path class="st10" d="M842.75,784.97l10.18,8.49c1.76-0.23,3.05-1.77,2.96-3.55l0,0l-10.18-8.49L842.75,784.97z"/>
					<path class="st13" d="M847.12,779.85c-0.39-1.1-1.22-1.98-2.3-2.42c-4.51-1.85-11.5-3.33-11.5-3.33s2.41,5.93,5.24,10.74
						c0.64,1.08,1.72,1.81,2.96,1.98c3.86,0.53,6.91-3.21,5.62-6.89L847.12,779.85z"/>
				</g>
				<g>
					<path class="st10" d="M827.75,797.74l10.18,8.49c1.76-0.23,3.05-1.77,2.96-3.55l-10.18-8.49L827.75,797.74z"/>
					<path class="st13" d="M832.11,792.63c-0.39-1.1-1.22-1.98-2.3-2.42c-4.51-1.85-11.5-3.33-11.5-3.33s2.41,5.93,5.24,10.74
						c0.64,1.08,1.72,1.81,2.96,1.98c3.86,0.53,6.91-3.21,5.62-6.89L832.11,792.63z"/>
				</g>
				<g>
					<path class="st10" d="M820.53,808.46l-2.75,3.71l10.65,7.89c1.75-0.33,2.95-1.95,2.75-3.71L820.53,808.46z"/>
					<path class="st13" d="M821.84,806.82c-0.45-1.07-1.33-1.9-2.43-2.28c-4.61-1.59-11.67-2.67-11.67-2.67s2.74,5.78,5.85,10.43
						c0.7,1.04,1.82,1.71,3.07,1.81h0c3.88,0.31,6.72-3.6,5.22-7.2L821.84,806.82z"/>
				</g>
				<g>
					<path class="st10" d="M813.19,826.82l-1.93,4.2l12.04,5.53c1.64-0.68,2.48-2.51,1.93-4.2L813.19,826.82z"/>
					<path class="st13" d="M814.14,824.94c-0.66-0.96-1.69-1.59-2.85-1.73c-4.84-0.6-11.97-0.21-11.97-0.21s3.87,5.09,7.87,9
						c0.9,0.88,2.14,1.3,3.38,1.14h0c3.86-0.5,5.83-4.91,3.63-8.12L814.14,824.94z"/>
				</g>
				<g>
					<path class="st10" d="M823.82,860.32c-1.18,1.33-1.14,3.34,0.09,4.62l13.25-0.27l-0.09-4.62L823.82,860.32z"/>
					<path class="st13" d="M836.95,857.95l-0.08,0.05c-3.31,2.06-3.26,6.89,0.08,8.89c1.07,0.64,2.38,0.75,3.55,0.3
						c5.22-1.99,10.8-5.11,10.8-5.11s-6.39-3.2-11.06-4.58C839.13,857.17,837.93,857.33,836.95,857.95z"/>
				</g>
				<g>
					<path class="st10" d="M828.51,883.15l13.12,1.9l0.66-4.57l-13.12-1.9C827.79,879.69,827.5,881.69,828.51,883.15z"/>
					<path class="st13" d="M842.51,878.39l-0.08,0.04c-3.6,1.49-4.34,6.27-1.37,8.78c0.96,0.81,2.23,1.13,3.46,0.88
						c5.48-1.11,11.5-3.28,11.5-3.28s-5.78-4.2-10.17-6.33C844.8,877.97,843.59,877.94,842.51,878.39z"/>
				</g>
				<g>
					<path class="st10" d="M840.76,896.53l-6.4,11.6l4.05,2.23l6.4-11.61C844.25,897.07,842.48,896.1,840.76,896.53z"/>
					<path class="st13" d="M832.54,906.85L832.54,906.85c-1.09,0.61-1.84,1.69-2.04,2.92c-0.89,5.52-0.98,11.91-0.98,11.91
						s5.97-3.93,9.5-7.29c0.84-0.8,1.3-1.92,1.26-3.08l0-0.09C840.15,907.33,835.95,904.95,832.54,906.85z"/>
				</g>
				<g>
					<path class="st10" d="M852.92,909.16l-6.4,11.6l4.05,2.23l6.4-11.6C856.4,909.7,854.64,908.73,852.92,909.16z"/>
					<path class="st13" d="M844.7,919.47c-1.09,0.61-1.84,1.69-2.04,2.92c-0.89,5.52-0.98,11.91-0.98,11.91s5.97-3.93,9.5-7.29
						c0.84-0.8,1.3-1.92,1.26-3.08l0-0.09C852.31,919.96,848.1,917.58,844.7,919.47z"/>
				</g>
				<g>
					<path class="st10" d="M870.08,918.36l-6.4,11.6l4.05,2.23l6.4-11.6C873.57,918.9,871.8,917.93,870.08,918.36z"/>
					<path class="st13" d="M861.86,928.68c-1.09,0.61-1.84,1.69-2.04,2.92c-0.89,5.52-0.98,11.91-0.98,11.91s5.97-3.93,9.5-7.29
						c0.84-0.8,1.3-1.92,1.26-3.08l0-0.09C869.47,929.16,865.27,926.78,861.86,928.68z"/>
				</g>
				<g>
					<path class="st10" d="M884.5,922.63l-4.15,12.59l4.39,1.45l4.15-12.59C888.03,922.52,886.11,921.89,884.5,922.63z"/>
					<path class="st13" d="M886.74,937.16c-0.85-3.8-5.42-5.36-8.42-2.87c-0.96,0.8-1.5,2-1.46,3.25
						c0.14,5.59,1.24,11.89,1.24,11.89s5.14-4.96,7.99-8.92c0.68-0.94,0.92-2.13,0.67-3.26L886.74,937.16z"/>
				</g>
				<g>
					<path class="st10" d="M900.43,928.71l-1.95,13.11l4.57,0.68l1.95-13.11C903.89,928,901.9,927.71,900.43,928.71z"/>
					<path class="st13" d="M905.11,942.65c-1.48-3.6-6.25-4.36-8.78-1.4c-0.81,0.95-1.14,2.22-0.89,3.45
						c1.09,5.48,3.24,11.51,3.24,11.51s4.23-5.76,6.36-10.14c0.51-1.04,0.55-2.26,0.11-3.33L905.11,942.65z"/>
				</g>
				<g>
					<path class="st10" d="M918.73,931.55l-0.83,13.23l4.61,0.29l0.83-13.23C922.12,930.55,920.11,930.43,918.73,931.55z"/>
					<path class="st13" d="M924.57,945.04c-1.78-3.47-6.6-3.82-8.87-0.65c-0.73,1.02-0.94,2.31-0.6,3.52
						c1.55,5.37,4.2,11.19,4.2,11.19s3.72-6.1,5.48-10.65c0.42-1.08,0.35-2.29-0.18-3.33L924.57,945.04z"/>
				</g>
				<g>
					<path class="st10" d="M938.59,932.83l0.11,13.25l4.62-0.04l-0.11-13.25C941.9,931.59,939.89,931.61,938.59,932.83z"/>
					<path class="st13" d="M945.39,945.87c-2.02-3.33-6.85-3.34-8.89-0.02l0,0c-0.65,1.07-0.78,2.37-0.34,3.55
						c1.93,5.25,4.99,10.86,4.99,10.86s3.28-6.35,4.71-11.01c0.34-1.11,0.19-2.31-0.41-3.31L945.39,945.87z"/>
				</g>
				<g>
					<path class="st10" d="M904.44,959.01l0.11,13.25l4.62-0.04l-0.11-13.25C907.75,957.77,905.73,957.79,904.44,959.01z"/>
					<path class="st13" d="M911.23,972.04c-2.02-3.33-6.85-3.34-8.89-0.02c-0.65,1.07-0.78,2.37-0.34,3.55
						c1.93,5.25,4.99,10.86,4.99,10.86s3.28-6.35,4.71-11.01c0.34-1.11,0.19-2.31-0.41-3.31L911.23,972.04z"/>
				</g>
				<g>
					<path class="st10" d="M891.58,871.8l0.11,13.25l4.62-0.04l-0.11-13.25C894.89,870.56,892.88,870.58,891.58,871.8z"/>
					<path class="st13" d="M898.37,884.84c-2.02-3.33-6.85-3.34-8.89-0.02l0,0c-0.65,1.07-0.78,2.37-0.34,3.55
						c1.93,5.25,4.99,10.86,4.99,10.86s3.28-6.35,4.71-11.01c0.34-1.11,0.19-2.31-0.41-3.31L898.37,884.84z"/>
				</g>
				<g>
					<path class="st10" d="M876.1,875.44l0.11,13.25l4.62-0.04l-0.11-13.25C879.41,874.21,877.39,874.22,876.1,875.44z"/>
					<path class="st13" d="M882.89,888.48c-2.02-3.33-6.85-3.34-8.89-0.02c-0.65,1.07-0.78,2.37-0.34,3.55
						c1.93,5.25,4.99,10.86,4.99,10.86s3.28-6.35,4.71-11.01c0.34-1.11,0.19-2.31-0.41-3.31L882.89,888.48z"/>
				</g>
				<g>
					<path class="st10" d="M853.18,877.53l0.11,13.25l4.62-0.04l-0.11-13.25C856.48,876.29,854.47,876.31,853.18,877.53z"/>
					<path class="st13" d="M859.97,890.57c-2.02-3.33-6.85-3.34-8.89-0.02c-0.65,1.07-0.78,2.37-0.34,3.55
						c1.93,5.25,4.99,10.86,4.99,10.86s3.28-6.35,4.71-11.01c0.34-1.11,0.19-2.31-0.41-3.31L859.97,890.57z"/>
				</g>
				<g>
					<path class="st10" d="M814.46,882.56l0.11,13.25l4.62-0.04l-0.11-13.25C817.77,881.32,815.75,881.34,814.46,882.56z"/>
					<path class="st13" d="M821.25,895.59c-2.02-3.33-6.85-3.34-8.89-0.02c-0.65,1.07-0.78,2.37-0.34,3.55
						c1.93,5.25,4.99,10.86,4.99,10.86s3.28-6.35,4.71-11.01c0.34-1.11,0.19-2.31-0.41-3.31L821.25,895.59z"/>
				</g>
				<g>
					<path class="st10" d="M758.3,891.01l0.11,13.25l4.62-0.04l-0.11-13.25C761.6,889.77,759.59,889.78,758.3,891.01z"/>
					<path class="st13" d="M765.09,904.04c-2.02-3.33-6.85-3.34-8.89-0.02c-0.65,1.07-0.78,2.37-0.34,3.55
						c1.93,5.25,4.99,10.86,4.99,10.86s3.28-6.35,4.71-11.01c0.34-1.11,0.19-2.31-0.41-3.31L765.09,904.04z"/>
				</g>
				<g>
					<path class="st10" d="M864.38,876.83l0.11,13.25l4.62-0.04L869,876.79C867.69,875.59,865.68,875.61,864.38,876.83z"/>
					<path class="st13" d="M871.17,889.86c-2.02-3.33-6.85-3.34-8.89-0.02l0,0c-0.65,1.07-0.78,2.37-0.34,3.55
						c1.93,5.25,4.99,10.86,4.99,10.86s3.28-6.35,4.71-11.01c0.34-1.11,0.19-2.31-0.41-3.31L871.17,889.86z"/>
				</g>
				<g>
					<path class="st10" d="M915.05,869.3l2.75,12.96l4.52-0.96l-2.75-12.96C918.04,867.43,916.07,867.84,915.05,869.3z"/>
					<path class="st13" d="M924.3,880.72c-2.65-2.86-7.38-1.91-8.72,1.75h0c-0.43,1.18-0.29,2.48,0.37,3.55
						c2.94,4.76,7.05,9.65,7.05,9.65s1.95-6.88,2.42-11.73c0.11-1.16-0.27-2.31-1.06-3.16L924.3,880.72z"/>
				</g>
				<g>
					<path class="st10" d="M917.12,815.55l2.75,12.96l4.52-0.96l-2.75-12.96C920.11,813.68,918.14,814.1,917.12,815.55z"/>
					<path class="st13" d="M926.37,826.98c-2.65-2.86-7.38-1.91-8.72,1.75c-0.43,1.18-0.29,2.48,0.37,3.55
						c2.94,4.76,7.05,9.65,7.05,9.65s1.95-6.88,2.42-11.73c0.11-1.16-0.27-2.31-1.06-3.16L926.37,826.98z"/>
				</g>
				<g>
					<path class="st10" d="M944.73,811.91l-2.68,12.98l4.53,0.94l2.68-12.98C948.22,811.4,946.25,810.99,944.73,811.91z"/>
					<path class="st13" d="M948.62,826.08c-1.28-3.68-6-4.71-8.69-1.89l0,0c-0.86,0.91-1.26,2.16-1.08,3.4
						c0.78,5.54,2.59,11.67,2.59,11.67s4.54-5.52,6.92-9.77c0.57-1.01,0.67-2.22,0.29-3.32L948.62,826.08z"/>
				</g>
				<g>
					<path class="st10" d="M964.62,815.72l-2.68,12.98l4.53,0.94l2.68-12.98C968.12,815.21,966.14,814.8,964.62,815.72z"/>
					<path class="st13" d="M968.51,829.9c-1.28-3.68-6-4.71-8.69-1.89l0,0c-0.86,0.91-1.26,2.16-1.08,3.4
						c0.78,5.54,2.59,11.67,2.59,11.67s4.54-5.52,6.92-9.77c0.57-1.01,0.67-2.22,0.29-3.32L968.51,829.9z"/>
				</g>
				<g>
					<path class="st10" d="M882.42,841.03l8.27,10.36l3.61-2.88l-8.27-10.36C884.26,838.01,882.68,839.27,882.42,841.03z"/>
					<path class="st13" d="M895.89,847.12l-0.09-0.03c-3.65-1.37-7.45,1.6-7.01,5.47c0.14,1.24,0.85,2.35,1.92,3
						c4.76,2.94,10.63,5.47,10.63,5.47s-1.34-7.02-3.09-11.57C897.84,848.39,896.98,847.53,895.89,847.12z"/>
				</g>
				<g>
					<path class="st10" d="M889.5,817.67l8.27,10.36c1.77,0.13,3.35-1.12,3.61-2.88l-8.27-10.36L889.5,817.67z"/>
					<path class="st13" d="M893.08,810.59c-4.76-2.94-10.63-5.47-10.63-5.47s1.34,7.02,3.09,11.57c0.42,1.08,1.28,1.94,2.37,2.35
						l0.09,0.03c3.65,1.37,7.45-1.6,7.01-5.47C894.86,812.36,894.14,811.25,893.08,810.59z"/>
				</g>
				<g>
					<path class="st10" d="M934.09,864.91l2.75,12.96l4.52-0.96l-2.75-12.96C937.09,863.04,935.12,863.45,934.09,864.91z"/>
					<path class="st13" d="M943.34,876.33c-2.65-2.86-7.38-1.91-8.72,1.75c-0.43,1.18-0.29,2.48,0.37,3.55
						c2.94,4.76,7.05,9.65,7.05,9.65s1.95-6.87,2.42-11.73c0.11-1.16-0.27-2.31-1.06-3.16L943.34,876.33z"/>
				</g>
				<g>
					<path class="st10" d="M951.78,860.01l3.43,12.8l4.46-1.2l-3.43-12.8C954.67,857.99,952.72,858.51,951.78,860.01z"/>
					<path class="st13" d="M961.62,870.93c-2.79-2.72-7.47-1.52-8.61,2.21l0,0c-0.37,1.2-0.16,2.49,0.56,3.52
						c3.18,4.6,7.55,9.27,7.55,9.27s1.58-6.97,1.8-11.84c0.05-1.16-0.4-2.29-1.23-3.1L961.62,870.93z"/>
				</g>
				<g>
					<path class="st10" d="M970.83,853.45l3.43,12.8l4.46-1.2l-3.43-12.8C973.73,851.43,971.78,851.95,970.83,853.45z"/>
					<path class="st13" d="M980.67,864.37c-2.79-2.72-7.47-1.52-8.61,2.21c-0.37,1.2-0.16,2.49,0.56,3.52
						c3.18,4.6,7.55,9.27,7.55,9.27s1.58-6.97,1.8-11.84c0.05-1.16-0.4-2.29-1.23-3.1L980.67,864.37z"/>
				</g>
				<g>
					<path class="st10" d="M986.12,846.96l5.9,11.87l4.14-2.06l-5.9-11.87C988.56,844.4,986.75,845.3,986.12,846.96z"/>
					<path class="st13" d="M998.01,855.76l-0.08-0.05c-3.28-2.11-7.62-0.01-8,3.87c-0.12,1.25,0.34,2.47,1.24,3.34
						c4.03,3.88,9.24,7.59,9.24,7.59s0.17-7.14-0.58-11.96C999.65,857.41,998.99,856.39,998.01,855.76z"/>
				</g>
				<g>
					<path class="st10" d="M925.86,914.2l5.9,11.87c1.7,0.5,3.51-0.39,4.14-2.06l-5.9-11.87L925.86,914.2z"/>
					<path class="st13" d="M921.61,900.45c0,0-0.17,7.14,0.58,11.96c0.18,1.15,0.84,2.16,1.82,2.79l0.08,0.05
						c3.28,2.11,7.62,0.01,8-3.87c0.12-1.25-0.34-2.47-1.24-3.34C926.82,904.16,921.61,900.45,921.61,900.45z"/>
				</g>
				<g>
					<path class="st10" d="M940.82,906.97l5.9,11.87c1.7,0.5,3.51-0.39,4.14-2.06l-5.9-11.87L940.82,906.97z"/>
					<path class="st13" d="M936.57,893.23c0,0-0.17,7.14,0.58,11.96c0.18,1.15,0.84,2.16,1.82,2.79l0.08,0.05
						c3.28,2.11,7.62,0.01,8-3.87l0,0c0.12-1.25-0.34-2.47-1.24-3.34C941.77,896.94,936.57,893.23,936.57,893.23z"/>
				</g>
				<g>
					<path class="st10" d="M957.28,897.3l5.9,11.87c1.7,0.5,3.51-0.39,4.14-2.06l-5.9-11.87L957.28,897.3z"/>
					<path class="st13" d="M953.03,883.55c0,0-0.17,7.14,0.58,11.96c0.18,1.15,0.84,2.16,1.82,2.79l0.08,0.05
						c3.28,2.11,7.62,0.01,8-3.87c0.12-1.25-0.34-2.47-1.24-3.34C958.24,887.26,953.03,883.55,953.03,883.55z"/>
				</g>
				<g>
					<path class="st10" d="M973.03,886.8l5.9,11.87c1.7,0.5,3.51-0.39,4.14-2.06l-5.9-11.87L973.03,886.8z"/>
					<path class="st13" d="M968.78,873.06c0,0-0.17,7.14,0.58,11.96c0.18,1.15,0.84,2.16,1.82,2.79l0.08,0.05
						c3.28,2.11,7.62,0.01,8-3.87c0.12-1.25-0.34-2.47-1.24-3.34C973.99,876.77,968.78,873.06,968.78,873.06z"/>
				</g>
				<g>
					<path class="st10" d="M999.97,912.76c-1.56,0.85-2.2,2.76-1.47,4.38l12.56,4.22l1.47-4.38L999.97,912.76L999.97,912.76z"/>
					<path class="st13" d="M1016.39,915.65c-0.94-0.69-2.12-0.94-3.26-0.69l-0.09,0.02c-3.81,0.83-5.4,5.39-2.92,8.4
						c0.79,0.97,1.99,1.51,3.24,1.48c5.59-0.11,11.9-1.17,11.9-1.17S1020.32,918.52,1016.39,915.65z"/>
				</g>
				<g>
					<path class="st10" d="M1010.02,901.54l12.56,4.22l1.47-4.38l-12.56-4.22C1009.94,898.01,1009.29,899.92,1010.02,901.54z"/>
					<path class="st13" d="M1027.92,900.05c-0.94-0.69-2.12-0.94-3.26-0.69l-0.09,0.02c-3.81,0.83-5.39,5.39-2.92,8.4l0,0
						c0.79,0.97,1.99,1.51,3.24,1.48c5.59-0.11,11.9-1.17,11.9-1.17S1031.85,902.93,1027.92,900.05z"/>
				</g>
				<g>
					<path class="st10" d="M1017.23,885.69l12.56,4.22l1.47-4.38l-12.56-4.22C1017.14,882.16,1016.5,884.07,1017.23,885.69z"/>
					<path class="st13" d="M1035.12,884.2c-0.94-0.69-2.12-0.94-3.26-0.69l-0.09,0.02c-3.81,0.83-5.39,5.39-2.92,8.4
						c0.79,0.97,1.99,1.51,3.24,1.48c5.59-0.11,11.9-1.17,11.9-1.17S1039.06,887.07,1035.12,884.2z"/>
				</g>
				<g>
					<path class="st10" d="M926.59,776.43c1.21,1.3,3.22,1.46,4.61,0.35l1.01-13.21l-4.61-0.35L926.59,776.43z"/>
					<path class="st13" d="M930.99,749.24c0,0-3.43,5.4-5.71,10.5c-0.51,1.14-0.48,2.46,0.1,3.56c1.81,3.45,6.63,3.77,8.87,0.59
						l0.05-0.08c0.67-0.95,0.9-2.14,0.64-3.27C933.83,755.79,930.99,749.24,930.99,749.24z"/>
				</g>
				<g>
					<path class="st10" d="M950.13,778.48l-3.86,12.68l4.42,1.35l3.86-12.68C953.65,778.29,951.73,777.7,950.13,778.48z"/>
					<path class="st13" d="M944.34,790.4l-0.07,0.06c-0.86,0.78-1.35,1.89-1.33,3.05c0.05,4.87,1.4,11.89,1.4,11.89
						s4.52-4.52,7.86-9.01c0.75-1,1-2.29,0.67-3.5C951.86,789.14,947.23,787.78,944.34,790.4z"/>
				</g>
				<g>
					<path class="st10" d="M971.05,787.36c0.89,1.54,2.82,2.12,4.42,1.35l3.86-12.68l-4.42-1.35L971.05,787.36z"/>
					<path class="st13" d="M973.4,770.78c-0.75,1-1,2.29-0.67,3.5c1.01,3.76,5.65,5.12,8.53,2.5l0.07-0.06
						c0.86-0.78,1.35-1.89,1.33-3.05c-0.05-4.87-1.4-11.89-1.4-11.89S976.73,766.29,973.4,770.78z"/>
				</g>
				<g>
					<path class="st10" d="M989.54,795.83c0.68,1.64,2.52,2.48,4.2,1.92l5.5-12.06l-4.2-1.92L989.54,795.83z"/>
					<path class="st13" d="M994.05,779.71c-0.87,0.9-1.29,2.14-1.13,3.38c0.51,3.86,4.92,5.82,8.13,3.61l0.08-0.05
						c0.96-0.66,1.58-1.7,1.73-2.85c0.59-4.84,0.19-11.97,0.19-11.97S997.95,775.7,994.05,779.71z"/>
				</g>
				<g>
					<path class="st10" d="M1009.33,806.19l-9.75,8.98l3.13,3.4l9.75-8.98C1012.46,807.81,1011.1,806.33,1009.33,806.19z"/>
					<path class="st13" d="M998.3,813.55l-0.09,0.02c-1.14,0.24-2.12,0.95-2.7,1.96c-2.42,4.23-4.82,10.96-4.82,10.96
						s6.19-1.61,11.34-3.79c1.15-0.49,2.02-1.47,2.35-2.68C1005.42,816.27,1002.11,812.75,998.3,813.55z"/>
				</g>
				<g>
					<path class="st10" d="M1021.19,820.54c0.01,1.78,1.39,3.25,3.16,3.37l9.67-9.07l-3.16-3.37L1021.19,820.54z"/>
					<path class="st13" d="M1029.16,810.03c-1,3.77,2.34,7.25,6.15,6.42l0.09-0.02c1.14-0.25,2.11-0.97,2.68-1.98
						c2.38-4.25,4.72-11.01,4.72-11.01s-6.18,1.66-11.3,3.89C1030.34,807.83,1029.48,808.82,1029.16,810.03z"/>
				</g>
				<g>
					<path class="st10" d="M1032.29,838.25c-0.07,1.78,1.24,3.31,3.01,3.51l0,0l10.07-8.62l-3.01-3.51L1032.29,838.25z"/>
					<path class="st13" d="M1040.73,828.11c-1.17,3.72,2.01,7.35,5.85,6.69l0.09-0.02c1.15-0.2,2.15-0.87,2.77-1.86
						c2.57-4.14,5.21-10.78,5.21-10.78s-6.24,1.38-11.47,3.38C1042.01,825.97,1041.1,826.92,1040.73,828.11z"/>
				</g>
				<g>
					<path class="st10" d="M1048.83,869.58L1048.83,869.58c-0.79,1.59-0.22,3.52,1.3,4.43l12.72-3.74l-1.3-4.43L1048.83,869.58z"/>
					<path class="st13" d="M1060.68,863.8L1060.68,863.8c-2.59,2.91-1.18,7.53,2.6,8.5l0.09,0.02c1.13,0.29,2.32,0.09,3.28-0.56
						c4.04-2.72,9.17-7.7,9.17-7.7s-6.26-1.3-11.84-1.62C1062.73,862.36,1061.51,862.86,1060.68,863.8z"/>
				</g>
				<g>
					<path class="st10" d="M1050.33,893.88l13.24,0.67l0.23-4.61l-13.24-0.67C1049.29,890.51,1049.19,892.52,1050.33,893.88z"/>
					<path class="st13" d="M1063.66,887.72L1063.66,887.72c-3.4,1.9-3.6,6.72-0.36,8.88l0.08,0.05c0.97,0.65,2.16,0.85,3.29,0.55
						c4.72-1.23,11.2-4.24,11.2-4.24s-5.48-3.29-10.64-5.44C1066.06,887.04,1064.75,887.11,1063.66,887.72z"/>
				</g>
				<g>
					<path class="st10" d="M1043.98,906.39c-1.68,0.58-2.62,2.36-2.17,4.08l11.71,6.21l2.17-4.08L1043.98,906.39L1043.98,906.39z"/>
					<path class="st13" d="M1056.5,910.53c-3.89,0.28-6.11,4.57-4.08,7.9l0.05,0.08c0.6,0.99,1.6,1.68,2.74,1.89
						c4.79,0.88,11.94,0.9,11.94,0.9s-3.57-5.3-7.34-9.44C1058.96,910.94,1057.75,910.45,1056.5,910.53z"/>
				</g>
				<g>
					<path class="st10" d="M1028.16,920.17l7.8,10.71l3.73-2.72l-7.8-10.71C1030.13,917.24,1028.5,918.43,1028.16,920.17z"/>
					<path class="st13" d="M1041.34,926.66c-3.61-1.45-7.49,1.43-7.13,5.31l0.01,0.09c0.11,1.16,0.7,2.21,1.64,2.9
						c3.92,2.89,10.34,6.04,10.34,6.04s-0.89-6.33-2.46-11.7C1043.38,928.1,1042.5,927.13,1041.34,926.66z"/>
				</g>
				<g>
					<path class="st10" d="M1007.52,930.61L1007.52,930.61l6.11,11.76l4.1-2.13l-6.11-11.76
						C1009.91,928.01,1008.12,928.94,1007.52,930.61z"/>
					<path class="st13" d="M1019.58,938.99c-3.36-1.98-7.62,0.29-7.84,4.18l-0.01,0.09c-0.07,1.16,0.36,2.29,1.19,3.12
						c3.45,3.45,9.32,7.52,9.32,7.52s0.07-6.4-0.69-11.93C1021.38,940.73,1020.66,939.63,1019.58,938.99z"/>
				</g>
				<g>
					<path class="st10" d="M983.34,943.25l6.11,11.76l4.1-2.13l-6.11-11.76C985.73,940.65,983.94,941.58,983.34,943.25z"/>
					<path class="st13" d="M995.4,951.63c-3.36-1.98-7.62,0.29-7.84,4.18l-0.01,0.09c-0.07,1.16,0.36,2.29,1.19,3.11
						c3.45,3.45,9.32,7.52,9.32,7.52s0.07-6.4-0.69-11.93C997.2,953.37,996.48,952.27,995.4,951.63z"/>
				</g>
				<g>
					<path class="st10" d="M1069.95,931.66c0.88,1.55,2.8,2.15,4.41,1.39l3.99-12.64l-4.41-1.39L1069.95,931.66z"/>
					<path class="st13" d="M1072.47,915.11c-0.76,1-1.02,2.28-0.71,3.49l0,0c0.97,3.77,5.59,5.18,8.51,2.59l0.07-0.06
						c0.87-0.77,1.36-1.88,1.36-3.04c0-4.87-1.28-11.91-1.28-11.91S1075.85,910.66,1072.47,915.11z"/>
				</g>
				<g>
					<path class="st10" d="M1095.65,923.42c0.88,1.55,2.8,2.15,4.41,1.39l3.99-12.64l-4.41-1.39L1095.65,923.42z"/>
					<path class="st13" d="M1098.17,906.86c-0.76,1-1.02,2.28-0.71,3.49c0.97,3.77,5.59,5.18,8.51,2.59l0.07-0.06
						c0.87-0.77,1.36-1.88,1.36-3.04c0-4.87-1.28-11.91-1.28-11.91S1101.55,902.41,1098.17,906.86z"/>
				</g>
				<g>
					<path class="st10" d="M1123.66,915.28c0.88,1.54,2.8,2.15,4.41,1.39l3.99-12.64l-4.41-1.39L1123.66,915.28z"/>
					<path class="st13" d="M1126.18,898.72c-0.76,1-1.02,2.28-0.71,3.49c0.97,3.77,5.59,5.18,8.51,2.59l0.07-0.06
						c0.87-0.77,1.36-1.88,1.36-3.04c0-4.87-1.28-11.91-1.28-11.91S1129.56,894.27,1126.18,898.72z"/>
				</g>
				<g>
					<g>
						<g>
							<path class="st15" d="M427.67,900.97c80.86-0.17,161.76-0.35,242.56-3.88c40.17-1.75,80.31-4.34,120.34-8.16
								c38.04-3.63,76.3-7.76,113.8-15.3c18.05-3.63,35.95-8.2,53.33-14.32c15.73-5.54,32.66-11.93,46.41-21.52
								c10.46-7.29,16.28-19.74,7.9-31.04c-8.05-10.86-22.19-14.71-34.96-16.09c-30.74-3.32-62.52,6.43-86.37,26.01
								c-22.89,18.79-40.22,51.07-28.31,80.65c10.95,27.21,40.84,42.4,68.84,44.47c29.35,2.17,59.71-9.54,77.48-33.49
								c16.57-22.34,21.31-53.75,10.03-79.44c-12.14-27.63-40.9-44.86-69.88-49.58c-18.03-2.93-36.39-1.75-54.23,1.83
								c-17.04,3.41-34.28,8.53-49.91,16.22c-25.35,12.46-42.24,34.65-42.7,63.41c-0.41,25.8,11.31,51.94,30.22,69.37
								c22.44,20.69,54.36,28.36,84.2,27.74c53.69-1.1,138.85-28.22,127-96.92c-10.91-63.19-83.72-98.02-142.58-89.77
								C872.75,775.1,844,789.23,829,814.2c-14.59,24.29-11.16,54.57,4.29,77.59c36.09,53.75,119.72,45.48,158.26-1.45
								c18.79-22.87,19.01-53.85,3.29-78.52c-16.84-26.42-48.46-38.13-78.89-36.35c-28.81,1.69-61.28,14.25-73.03,42.68
								c-10.18,24.64-3.35,54.28,12.07,75.22c18.09,24.57,48.15,36.62,77.54,40.79c28.04,3.98,60.56,4.15,87.1-7.04
								c11.25-4.74,21.8-12.17,27.64-23.18c6.86-12.94,5.93-28.03-0.02-41.11c-6.65-14.61-19.19-25.34-32.91-33.14
								c-14.99-8.52-31.85-15.22-48.67-19c-29.36-6.59-65.18-1.13-81.83,26.92c-16.7,28.13-0.19,61.9,20.99,82.35
								c22.97,22.18,54.4,34.7,86.31,34.41c32.46-0.29,63.28-12.17,93.57-22.54c31.4-10.75,64.67-20.89,98.09-14.16
								c35.1,7.06,65.38,28.4,100.49,35.46c16.03,3.22,33.13,3.77,48.73-1.77c13.79-4.9,24.84-14.31,35.44-24.09
								c11.12-10.26,22.43-21.62,37.18-26.38c18.61-6.01,38.14-0.09,55.61,6.84c28.84,11.44,62.15,29.44,92.67,12.66
								c3.38-1.86,0.36-7.04-3.03-5.18c-30,16.5-63.69-4.11-91.89-14.76c-14.73-5.56-30.62-9.79-46.46-7.34
								c-12.85,1.99-23.86,8.66-33.75,16.82c-10.29,8.5-19.34,18.49-30.18,26.33c-12.94,9.36-27.83,13.62-43.77,13.28
								c-32.33-0.71-60.96-17.28-90.35-28.73c-14.39-5.61-29.27-9.95-44.74-11.04c-13.7-0.97-27.48,0.51-40.9,3.28
								c-28.9,5.96-56.12,17.79-84.32,26.19c-28.64,8.53-58.55,13.02-87.69,4.05c-28.71-8.84-56.59-29.65-68.18-58.04
								c-5.65-13.83-6.85-29.78,0.54-43.22c6.66-12.11,18.75-20.57,31.72-24.79c16.32-5.31,33.89-3.69,50.21,0.77
								c15.35,4.2,30.7,10.42,44.3,18.73c13.12,8.01,24.76,19.23,29.54,34.19c4.47,14,1.69,28.85-8.87,39.3
								c-18.38,18.19-48.78,20.04-73.09,19.98c-28.83-0.08-58.87-5.17-83.02-21.85c-21.46-14.82-35.35-40.18-34.86-66.46
								c1.22-64.59,96.9-77.45,135.93-38.87c19.19,18.97,27.14,49.94,13.34,74.19c-14.88,26.15-47.2,42.22-76.31,45.39
								c-28.84,3.13-58.01-6.52-75.93-30.02c-16.08-21.09-21.32-50.23-7.82-73.96c13.56-23.84,40.61-37.29,66.92-41.36
								c29.25-4.52,60.03,1.72,85.57,16.56c24.97,14.51,45.82,38.13,51.46,67.08c2.71,13.89,1.05,28.43-5.99,40.82
								c-7.25,12.77-19.08,22.07-31.83,28.96c-25.21,13.63-55.42,20.77-83.99,21.2c-28.41,0.43-59.04-6.88-80.12-27
								c-17.49-16.7-28.2-41.26-27.36-65.54c0.4-11.57,3.67-22.96,10.1-32.63c8.4-12.62,21.71-20.99,35.4-26.87
								c29.92-12.85,65.74-20.61,98.07-13.97c27.63,5.67,54.81,23.42,63.88,51.26c8.44,25.89,0.78,56.14-18.26,75.45
								c-20.23,20.51-51.7,27.66-79.37,21.18c-26.84-6.29-53.61-27.2-53.35-56.99c0.26-30.42,24.67-55.75,50.33-68.71
								c13.58-6.86,28.67-10.95,43.86-11.83c13.45-0.78,28.54-0.05,40.37,7.06c5.3,3.18,10.83,8.18,11.12,14.81
								c0.34,7.87-6.53,13.14-12.59,16.76c-14.4,8.6-30.35,14.99-46.22,20.3c-30.59,10.24-62.51,15.89-94.41,20.21
								c-35.96,4.87-72.1,8.42-108.28,11.13c-72.16,5.42-144.53,7.28-216.87,7.99c-34.71,0.34-69.43,0.42-104.14,0.49
								C423.81,894.98,423.81,900.98,427.67,900.97L427.67,900.97z"/>
						</g>
					</g>
					<g>
						<path class="st10" d="M809.86,843.74l-0.56,4.59l13.15,1.62c1.36-1.15,1.61-3.15,0.56-4.59L809.86,843.74z"/>
						<path class="st13" d="M810.27,841.72l-0.07-0.06c-0.92-0.71-2.1-1-3.24-0.79c-4.79,0.89-11.47,3.43-11.47,3.43
							s5.23,3.68,10.23,6.19c1.12,0.56,2.43,0.59,3.56,0.06C812.8,848.91,813.34,844.11,810.27,841.72z"/>
					</g>
					<g>
						<path class="st10" d="M772.64,875.92l0.11,13.25c1.31,1.2,3.33,1.18,4.62-0.04l-0.11-13.25L772.64,875.92z"/>
						<path class="st13" d="M774.83,861.7c0,0-3.28,6.35-4.71,11.01c-0.34,1.11-0.19,2.31,0.41,3.31l0.05,0.08
							c2.02,3.33,6.85,3.34,8.89,0.02c0.65-1.07,0.78-2.37,0.34-3.55C777.89,867.31,774.83,861.7,774.83,861.7z"/>
					</g>
					<g>
						<path class="st10" d="M788.08,887.93l0.11,13.25l4.62-0.04l-0.11-13.25C791.39,886.69,789.38,886.71,788.08,887.93z"/>
						<path class="st13" d="M794.87,900.97c-2.02-3.33-6.85-3.34-8.89-0.02c-0.65,1.07-0.78,2.37-0.34,3.55
							c1.93,5.25,4.99,10.86,4.99,10.86s3.28-6.35,4.71-11.01c0.34-1.11,0.19-2.31-0.41-3.31L794.87,900.97z"/>
					</g>
					<g>
						<path class="st10" d="M663.53,895.02l0.11,13.25l4.62-0.04l-0.11-13.25C666.84,893.78,664.83,893.8,663.53,895.02z"/>
						<path class="st13" d="M670.33,908.05c-2.02-3.33-6.85-3.34-8.89-0.02c-0.65,1.07-0.78,2.37-0.34,3.55
							c1.93,5.25,4.99,10.86,4.99,10.86s3.28-6.35,4.71-11.01c0.34-1.11,0.19-2.31-0.41-3.31L670.33,908.05z"/>
					</g>
					<g>
						<path class="st10" d="M645.75,895.02l0.11,13.25l4.62-0.04l-0.11-13.25C649.06,893.78,647.04,893.8,645.75,895.02z"/>
						<path class="st13" d="M652.54,908.05c-2.02-3.33-6.85-3.34-8.89-0.02c-0.65,1.07-0.78,2.37-0.34,3.55
							c1.93,5.25,4.99,10.86,4.99,10.86s3.28-6.35,4.71-11.01c0.34-1.11,0.19-2.31-0.41-3.31L652.54,908.05z"/>
					</g>
					<g>
						<path class="st10" d="M625.27,895.02l0.11,13.25l4.62-0.04l-0.11-13.25C628.58,893.78,626.56,893.8,625.27,895.02z"/>
						<path class="st13" d="M632.06,908.05c-2.02-3.33-6.85-3.34-8.89-0.02c-0.65,1.07-0.78,2.37-0.34,3.55
							c1.93,5.25,4.99,10.86,4.99,10.86s3.28-6.35,4.71-11.01c0.34-1.11,0.19-2.31-0.41-3.31L632.06,908.05z"/>
					</g>
					<g>
						<path class="st10" d="M1261.99,946.55l4.86,12.33l4.3-1.7l-4.86-12.33C1264.64,944.21,1262.76,944.95,1261.99,946.55z"/>
						<path class="st13" d="M1273.12,956.14c-3.13-2.32-7.61-0.5-8.24,3.35l-0.01,0.09c-0.19,1.15,0.12,2.32,0.86,3.22
							c3.07,3.78,8.49,8.44,8.49,8.44s0.73-6.35,0.55-11.94C1274.73,958.05,1274.13,956.88,1273.12,956.14z"/>
					</g>
					<g>
						<path class="st10" d="M1278.51,947.73c-0.24,1.76,0.91,3.41,2.65,3.79l10.86-7.59l-2.65-3.79L1278.51,947.73z"/>
						<path class="st13" d="M1287.9,938.47c-1.53,3.59,1.28,7.52,5.17,7.23l0.09-0.01c1.16-0.08,2.23-0.66,2.93-1.58
							c2.97-3.87,6.24-10.22,6.24-10.22s-6.35,0.76-11.74,2.23C1289.38,936.46,1288.39,937.32,1287.9,938.47z"/>
					</g>
					<g>
						<path class="st10" d="M1242.01,934.71c-0.65,1.66,0.09,3.53,1.7,4.3l12.33-4.86l-1.7-4.3L1242.01,934.71z"/>
						<path class="st13" d="M1256.46,926.23c-1.25,0.04-2.42,0.64-3.16,1.65c-2.32,3.13-0.5,7.61,3.35,8.24l0.09,0.02
							c1.15,0.19,2.32-0.12,3.22-0.86c3.78-3.07,8.44-8.49,8.44-8.49S1262.04,926.05,1256.46,926.23z"/>
					</g>
				</g>
				<g>
					<path class="st10" d="M1038.21,852.71l-11.82,6l2.09,4.12l11.82-6C1040.79,855.12,1039.87,853.33,1038.21,852.71z"/>
					<path class="st13" d="M1025.6,856.8l-0.09-0.01c-1.16-0.08-2.3,0.34-3.13,1.15c-3.48,3.41-7.61,9.25-7.61,9.25
						s6.39,0.13,11.94-0.57c1.24-0.16,2.35-0.87,2.99-1.94C1031.72,861.35,1029.49,857.07,1025.6,856.8z"/>
				</g>
			</g>
		</g>
	</g>
</g>
<g id="гирлянда_1_">
	<path class="st15" d="M1868.24,937.33c-31.1,0-80.64-11.57-106.26-17.56c-7.51-1.75-13.44-3.14-15.23-3.35l0.59-4.96
		c2.06,0.24,7.52,1.52,15.77,3.45c29.37,6.86,90.47,21.14,117.51,16.56c18.76-3.18,39.93-11.97,39.93-11.97l0,5.55
		c0,0-21.31,8.34-39.09,11.35C1877.63,937.04,1873.17,937.33,1868.24,937.33z"/>
</g>
<g id="Layer_26">
	<g>
		<path class="st7" d="M1565.24,36.64c-6.41-5.5-19.79-8.25-40.68-1.28c-20.88,6.96-25.3,25.66-25.66,30.05
			c-0.37,4.4,3.67,7.33,6.96,5.31c3.3-2.02,1.83-8.98,3.12-8.98c1.28,0,6.96,5.5,12.64,5.31c5.68-0.18,16.13-5.86,19.97-3.85
			c3.85,2.02,1.28,6.6,1.1,10.63c-0.18,4.03,6.78,6.6,9.35,9.64c2.57,3.04,1.65,6.67,2.38,8.87c0.73,2.2,2.57,0.37,4.21,0
			s3.48-8.06,7.51-8.8c4.03-0.73,5.5,4.4,4.58,9.16s-6.96,8.06-7.33,11.36c-0.37,3.3,5.86,7.15,5.86,7.15s11.91-28.77,12.09-42.7
			C1581.55,54.6,1571.66,42.14,1565.24,36.64z"/>
		<path class="st0" d="M1307.77,136.96c-0.37,9.07,31.52,21.98,31.52,21.98l20.89-2.2c0,0-0.37-21.26-17.59-42.89
			S1308.14,127.89,1307.77,136.96z"/>
		<path class="st7" d="M1104.62,18.16c-27.86-0.47-46.61,11.73-47.4,31.23c-0.83,20.48,0.57,87.57,0.57,87.57
			s43.02,0.74,44.08-28.93c1.06-29.66,0-33.79,0-33.79l-0.21-15.64h19.89h17.89c0,0,6.37-0.29,5.78-9.86
			C1144.64,39.18,1132.48,18.64,1104.62,18.16z"/>
		<path class="st7" d="M1145.7,100.07c0.18,5.22-1.51,11.44-3.45,12.24c-1.95,0.8-6.29,0.53-10.62-0.62
			c-4.34-1.15-9.74-2.04-9.74-2.04l-5.22-0.8l0.42,12.16c0.27,7.89,6.42,14.38,14.3,14.91c0.11,0.01,0.23,0.01,0.34,0.02
			c11.52,0.61,15.49-8.22,16.11-12.21s0.53-22.49,0.53-22.49L1145.7,100.07z"/>
		<path class="st7" d="M1149.42,96.46c0.65-0.18,1.77-3.19,0-4.19s-8.85,4.6-9.03,4.6c0,0,3.81,4.23,5.76,4.85
			c1.95,0.62,4.77,0.27,5.4-1.31C1152.26,98.65,1149.42,96.46,1149.42,96.46z"/>
		<path class="st7" d="M1278.12,533.24c-6.02-5.14-14.96-31.87-19.57-43.92c-4.6-12.04-12.48-42.68-12.48-42.68s-0.14,0.05-0.4,0.15
			c-3.55-14.82-30.14-125.42-31.9-126.43c-2.42-1.38-5.13-10.11-5.13-10.11l-1-6.14l-0.77,1.3l0.66,17.37
			c0.05,1.22-1.39,1.91-2.31,1.11c-0.75-0.66-1.55-1.48-2.19-2.42c-1.71-2.54-2.18-14.93-2.18-14.93l-1.53-1.12v18.96
			c0,1.24-1.5,1.87-2.38,1c-0.75-0.74-1.48-1.58-1.87-2.36c-1-2.01-1.46-16.32-1.46-16.32l-2.08-0.04l-0.32,16.31
			c-0.04,1.94-2.62,2.55-3.54,0.84c-1.18-2.18-2.19-4.6-2.1-6.42c0.19-3.86,0.8-9.08,0.3-11.48c-0.97-4.6-9.44-19.89-9.44-19.89
			l-45.1-0.35l-12.81,32.27c-0.28,0.7-1.21,0.83-1.67,0.23c-1.08-1.4-1.48-3.21-1.1-4.94l4.71-21.31l-5.8,21.18
			c-0.34,1.25-0.91,2.42-1.69,3.46l-0.18,0.25c-1.25,1.67-3.89,1.1-4.33-0.95c-0.26-1.22-0.26-2.49,0-3.72l4.68-22.11l-5.96,20.34
			c-0.59,2.01-1.51,3.9-2.72,5.61h0c-1.16,1.64-3.74,0.94-3.91-1.06c-0.11-1.24-0.04-2.49,0.19-3.71l3.78-20
			c0,0-4.25,11.22-5.19,13.46c-0.94,2.24-3.31,6.96-5.67,6.38c-2.36-0.59,0.24-7.79,0.83-12.04s4.96-13.58,4.96-13.58h-14.4
			c0,0-0.47-7.56,0-15.82c0.47-8.26,5.26-10.39,9.89-12.43c3.51-1.54,13.84,0.98,13.84,0.98l64.69,13.4V163.63
			c0-15.87-13.1-28.6-28.96-28.15l-14.42,0.41c0,1.95-9.21,16.82-31.17,15.94c-21.96-0.89-16.75-16.25-25.75-15.63
			c-13.95,0.96-18.17,0.05-36.76,4.3c-8.26,1.89-12.47,8.22-14.59,14.67c-2.52,7.65-2.18,15.96,0.56,23.53l35.64,98.51l-32.94,52.24
			h18.24c-0.18,18.95,17.71,28.16,17.71,28.16l87.42-1.24c0,0,2.36,29.04,5.55,45.33c2.83,14.45,24.87,74.29,29.82,87.65l-5.21,0.86
			c0,0,10.57,25.62,10.8,30.58c0.24,4.96-3.78,13.46-2.6,18.89c1.18,5.43,10.15,18.18,11.81,23.14c1.65,4.96-1.18,18.65,1.18,24.32
			s26.68,18.65,31.4,14.88c4.72-3.78,1.18-25.03-1.42-32.35c-2.6-7.32-9.74-31.28-11.6-38.01c-1.86-6.73-8.06-46.66-8.06-46.66
			l-4,0.66l-10.34-77.93l26.35,47.92c-4.94,1.84-8.7,3.23-8.82,3.23l12.57,26.39c0,0-6.99,10.89-6.64,21.69
			c0.35,10.8,19.83,39.75,19.83,39.75l5.22,0.27c0,0-5.22-11.33-6.99-16.47c-1.77-5.14-2.21-10.18,2.12-11.33
			c4.34-1.15,19.57,27.45,22.31,29.22c2.74,1.77,33.56,0.44,33.56,0.44s1.42,0.18,1.77-0.89
			C1297.42,546.88,1284.14,538.38,1278.12,533.24z"/>
		<path class="st7" d="M1620.2,142.91c-4.4-4.4-50.21-16.86-51.31-17.23c0,0-16.74-1.22-19.18,3.18
			c-2.44,4.4-27.37,12.22-30.3,11.24c-2.93-0.98-7.33-14.42-7.33-14.42c-7.33-14.42-39.58,12.46-39.58,12.46
			s-24.21,72.59-53.26,77.83c-6.23,1.12-12.47-1.94-15.85-7.29l-36.86-58.41l-38.06,7.28l59.53,105.17
			c8.12,12.37,27.03,26.38,42.97,29.74c-24.91,16.92-50.53,33.72-54.85,34.32c-8.8,1.22-25.17,2.69-36.16,4.4
			c-11,1.71-26.63,22.23-28.83,25.9c-2.2,3.67-0.24,9.04,4.89,12.46c5.13,3.42,26.11,0.37,34.45,0.73
			c8.34,0.36,22.72-9.53,31.52-10.75c3.52-0.49,19.52,0.06,37.45,0.89l34.51,143.76c0,0,19.83-0.05,19.84-0.54
			c0.11-18.44,1.6,20.53,1.17,30.72c-0.3,7.1-19.18,24.19-30.18,29.57s-38.24,16.25-38.24,16.25v5.62c0,0,46.06,0,55.94,0
			s9.05-4.03,16.26-6.72s17.84-3.79,20.61-3.79c2.77,0,0,10.51,0,10.51l25.57-0.61c0,0,1.1-15.64,0-29.56
			c-1.1-13.93-11.36-28.34-13.32-31.76c-1.95-3.42-9.04-20.4-9.04-20.4l2.93-1.34c0,0-12.09-74.77-17.59-102.17
			c-3.17-15.81-7.32-28.4-10.39-36.37c0.08,0,0.13,0.01,0.13,0.01h112.15c24.19,30.05,46.55,24.92,46.55,24.92v-91.26
			c10.85-24.32,6.44-32.53,4.01-44.36C1637.79,240.4,1624.6,147.31,1620.2,142.91z"/>
	</g>
</g>
<g id="Layer_24">
	<path class="st16" d="M1375.9,646.73c-8.59-0.94-25.8-2.98-27.7-4.75c-2.39-2.23-20.51-12.56-28.3-14.76s-14.47-2.73-17.97-1.93
		s-12.4,14.47-14.31,15.74l23.85,68.38l36.89-16.06l19.56,6.68c0,0,9.38,4.13,17.49-15.27c5.91-14.14,4.79-37.78-0.39-33.61
		C1381.17,654.25,1378.27,646.99,1375.9,646.73z"/>
</g>
<g id="champain">
	<g>
		<path class="st17" d="M1277.67,638.46l-31.36-9.18c-2.32-0.68-4.82,0.84-5.56,3.37l-7,23.94l-0.21-0.06l-7,23.94
			c-0.81,2.76,0.48,5.39,2.8,6.07l31.57,9.24c2.32,0.68,4.82-0.84,5.56-3.37l7.07-24.17l7-23.94
			C1281.27,641.76,1279.98,639.14,1277.67,638.46z"/>
		<path class="st17" d="M1283.82,706.48c0.19-0.05,0.37-0.12,0.55-0.18l-0.5-0.14L1283.82,706.48z"/>
		<path class="st17" d="M1327.49,648.44l-32.75-8.98l-76.89-22.25c-3.22-0.69-16.68-3.13-39.44,0.46c0,0-35.39,5.39-66.09-6.84
			l0.21,0.06c-1.76-1.01-3.52-2.03-4.57-2.34l-12.63-3.69c-2.74-0.8-5.58,1.12-6.59,4.57l-1.49,4.31l-1.35,4.6
			c-0.94,3.22,0.35,6.6,3.09,7.4l12.63,3.69c1.05,0.31,3.01,0.63,5.11,0.5l-0.21-0.06c32.66,6.31,59.36,29.86,59.36,29.86
			c17.3,15.06,29.95,20.26,33.04,21.41l76.76,22.71l8.19,2.31l0.5,0.14l23.98,6.76C1318.99,710.33,1338.04,657.22,1327.49,648.44z"
			/>
	</g>
</g>
<g id="Layer_4">
	<g id="XMLID_13_">
		<g>
			<path class="st18" d="M1773.25,744.38c-4.82-0.1-20.52,2.69-29.1,6.68c-0.32,0.15-7.06-67.45-8.36-67.94
				c-1.42-0.53,72.59,8.77,72.59,8.77c132.66,81.59-68.1,388.1-68.1,388.1l-222.84,0l115.05-238.38c0,0-15.19-0.52-78.16-30.04
				l3.88-40.98c90.2,9.96,160.72,12,172.25,9.76l32.65-10.69L1773.25,744.38z"/>
		</g>
		<g>
		</g>
	</g>
	<path class="st18" d="M1580.33,706.83c37.8-7.11,174.18-18.95,174.87-18.47l48.41-15.98l-18.47,52.86l-88.01,89.63l-127.55,1.38
		c-6.92,0.94,1.65-22.15-4.53-25.4l-212.62-80.35l23.48-63.77l197.64,59.43C1579.28,708.3,1574.31,707.96,1580.33,706.83z"/>
</g>
<g id="Layer_12">
	<polygon class="st19" points="1624.58,748.2 1464.75,1080 1622.91,1080 1736.44,768.8 	"/>
	<path class="st16" d="M1251.88,677.03c-2.11-2.98-12.54-17.66-13.94-21.39c-1.4-3.72-5-17.26-7.08-19.65
		c-2.08-2.38-4.39-3.35-5.68-3.89c-1.73-0.72-4.28-5.33-6.05-4.86c-1.77,0.47-4.14,0.09-3.4,1.86c0.74,1.77,6.94,17.32,3.4,24.12
		c-3.54,6.8-18.1,12.88-32.5,10.4c-14.4-2.48-29.96-10.3-31.37-11.99c-1.02-1.23-0.6,1.07-0.79,3.24s-0.87,8.44,1.55,10.55
		c2.42,2.11,6.7,6.64,6.7,6.64s-0.56,2.79-1.3,5.96c-0.75,3.17-0.31,8.01,9.5,13.28s14.4,11.79,15.09,12.97
		c0.68,1.18,24.96,18.06,37.25,19.06c12.29,0.99,18.87-0.87,23.47,0c4.59,0.87,19.99,11.17,19.99,11.17l-0.85-49.78
		C1265.86,684.74,1253.99,680.01,1251.88,677.03z"/>
</g>
<g id="Layer_39">
	<path class="st15" d="M1827.42,550.92l-58.32,9.17l-3.76,117.12c0,0,40.42,21.09,71.37-1.89c21.4-15.89,30.24-32.28,31.45-42.03
		C1874.25,584.25,1827.42,550.92,1827.42,550.92z"/>
</g>
<g id="шляпа">
	<g>
		<g>
			<g id="XMLID_29_">
				<g>
					<path class="st20" d="M1720.33,552.63c-13.59-6.24-55.34,11.74-64.79,14.37c-7.22,2.01-17.55-0.55-22.11-1.97
						c1.48-2.09,2.57-3.8,2.94-4.84c1.74-4.92-3.2-11.53-3.2-11.53s-1.56-8.78,2.93-15.85c4.49-7.07,10.67-37.87,23.79-41.18
						c13.11-3.31,55.97-55.48,81.65-10.2s36.79,51.18,37.46,86.27c0.19,10.05-0.86,19.69-2.29,28.64c-0.59-0.75-1.2-1.66-1.82-2.76
						C1765.66,577.37,1733.92,558.87,1720.33,552.63z"/>
				</g>
				<g>
				</g>
			</g>
			<g id="XMLID_8_">
				<g>
					<path class="st21" d="M1720.33,552.63c13.59,6.24,45.33,24.74,54.57,40.96c0.62,1.09,1.23,2,1.82,2.76
						c-3.55,22.3-9.44,40.38-4.22,50.11c7.31,13.65,35.89,45.43,35.89,45.43s-35.95,0.81-53.93,4.83
						c-23.95,5.35-45.72,26.05-49.22,19.94c-5.37-9.38-13.07-17.09-13.26-25.75c-0.18-8.33,2.89-13.51-2.07-14.42
						c-4.47-0.82-18.89-2.6-25.52-2.9c-0.73-0.03-1.36-0.05-1.88-0.04c-11.61,0.81-19.47-3.03-22.97-6.32
						c-5.09-4.78-0.98-16.72-1.16-20.26c-0.18-3.53-6.26-7.45-7.98-11.96c-1.73-4.51,6.46-11.48,6.32-13.53
						c-0.13-2.05-7-4.12-9.18-8.66c-2.18-4.53,2.19-13.05,2.19-13.05l0.43-0.56c-4.11,0.65-7.76,0.7-8.9,0.18
						c-2.97-1.35-5.32-3.12-4.91-8.71c0.32-4.42,11.53-17.78,17.1-25.63c4.56,1.42,14.89,3.98,22.11,1.97
						C1664.99,564.38,1706.75,546.39,1720.33,552.63z"/>
				</g>
				<g>
				</g>
			</g>
		</g>
		<path class="st15" d="M1651.47,613.25c-5.77,0.28-20.16,2.08-20.16,2.08s5.11,4.78,2.93,9.19c-1.47,2.99-3.51,7.02-4.3,8.39
			c-1.14,1.99,17.4-6.98,17.4-6.98l7.37-5.86l2.87-4.57C1657.59,615.51,1657.24,612.98,1651.47,613.25z"/>
		<path class="st22" d="M1628.8,617.84l0.32,3.04c0.05,0.52,0.44,0.94,0.95,1.03c0.82,0.15,1.98,0.3,2.38,0
			c0.11-0.08,0.09-0.19,0.09-0.19s3.3,0.31,4.17-0.25c0.15-0.1,0.2-0.35,0.2-0.35s3.45,0.14,4.29-0.49
			c0.08-0.06,0.09-0.19,0.09-0.19s3.8,0.43,4.73-0.29c0.1-0.08,0.14-0.5,0.14-0.5s3.33,0.19,3.43,0.18c2.77-0.2,7.33-4.26,7.33-4.26
			l0.84-1.37l-29,2.09L1628.8,617.84z"/>
		<path class="st20" d="M1631.33,607.84c-2.85-0.08-5.43,1.85-5.98,4.64c-0.58,2.96,1.44,4.49,4.74,4.22c0,0,21.3,0.12,27.23-1.98
			c0.64-0.23,0.44-0.52,0.44-0.52S1634.88,607.94,1631.33,607.84z"/>
		<path class="st20" d="M1655.53,614.86c-2.94,4.67-9.43,11.84-21.59,14.46c-2.74,0.59-4.43,3.5-4.71,6.28
			c-0.11,1.06,0.01,2.11,0.54,2.97c1.84,2.96,6.69,1,9.13-0.8c20.12-14.78,18.85-23.58,18.85-23.58S1656.3,613.62,1655.53,614.86z"
			/>
		<path class="st23" d="M1635.11,554.68"/>
		<path class="st24" d="M1645.7,580.63c-0.87-0.33-1.67,0.62-1.19,1.42c0.89,1.49,1.84,3.43,1.71,4.78
			c-0.12,1.34-1.52,3.05-2.77,4.35c-0.65,0.67-0.07,1.8,0.86,1.64c1.25-0.21,2.63-0.59,3.52-1.26c2-1.5,4.39-6.51,1.65-8.79
			C1648.28,581.76,1646.88,581.08,1645.7,580.63z"/>
		<g>
			<path class="st25" d="M1645.51,550.95c-1.88-0.15-1.22,1.11-0.88,1.33c2.04,1.33,4.39,1.4,8.3,2.43
				c2.64,0.69,12.07,3.05,12.07,3.05c-0.34,0-7.72-3.41-11.48-4.79C1649.76,551.59,1647.39,551.1,1645.51,550.95z"/>
			<path class="st25" d="M1649.87,552.1c-2.06-0.02-3.4,1.65-3.42,3.71c-0.02,2.06,1.29,3.75,3.36,3.77s2.99-1.56,3.01-3.62
				S1651.94,552.11,1649.87,552.1z"/>
		</g>
		<path class="st20" d="M1731.69,625.17c-1.35,3.84-3.76,9.54-6.33,13.44c-11.81,17.88-46.12,24.77-58.62,27.16
			c-12.5,2.39-19.81,5.78-16.51,6.8c3.3,1.02,9.03,1.08,12.28,0.97c3.25-0.11,24.44,2.47,27.4,2.94c2.96,0.48,3.23,3.23,2.17,6.61
			c-1.22,3.92,0.13,10.18,0.13,10.18s32.74-37.25,39.06-49.47c2.08-4.03,2.37-12.66,2.31-18.32
			C1733.57,624.4,1732.05,624.14,1731.69,625.17z"/>
		<path class="st15" d="M1653.26,534.09c-3.96-0.4-10.97,1.72-14.74,3.77c0,0-0.2,7.1,1.42,7.01c1.62-0.09,6.89-5.01,10.25-4.48
			c3.37,0.53,16.04,10.58,17.52,11.39c1.48,0.81,3.44,0.08,3.26-0.98S1657.22,534.49,1653.26,534.09z"/>
	</g>
	<g id="Layer_11">
		<path class="st19" d="M1770.78,695.26c-23.84,0.96-40.88,6.35-55.33,13.8c-13.04,6.73-26.72,12.14-40.75,16.44l-167.16,51.16
			c-33.39,8.75-65.49-4.98-92.48-18.3l-158.91-78.41c0,0-8.12,34.85-13.85,57.75c-5.72,22.9,196.54,141.68,196.54,141.68
			c35.92,11.55,83.01,14.79,143.11,8.59c147.17-15.18,259.9-75.62,264.33-128.8c0.79-9.46-1.88-24.43-7.68-36.73
			C1825.62,694.88,1779.04,694.93,1770.78,695.26z"/>
		<path class="st25" d="M1523.81,851.38"/>
	</g>
	<path class="st18" d="M1779.75,446.92c-9.6-3.42-27.65-7.41-49.78-9.28s-47.79-2.95-54.48-0.16
		c-12.73,5.31-37.05,60.72-37.05,60.72s1.46,5.25,10.64,2.07s71.91-3.43,81.21-2.49c9.3,0.94,76.76,40.72,76.76,40.72l10.51-61.6
		C1819.08,460.44,1790.87,450.88,1779.75,446.92z"/>
	<path class="st15" d="M1757.92,440.92c0,0-23.65-3.66-39.41-3.86c-15.12-0.19-14.4,2.59-11.44,7.75
		c2.1,3.67,6.73,10.13,18.11,16.85c11.38,6.72,58.99,18.05,66.3,17.22c5.36-0.61,15.71-5.99,13.57-14.38
		C1801.63,451.15,1758.82,441.06,1757.92,440.92z"/>
</g>
<g id="Layer_13">
	<path class="st15" d="M1756.77,586.62c-0.09-0.01-0.18-0.02-0.26-0.03C1756.61,586.6,1756.7,586.62,1756.77,586.62z"/>
	<path class="st15" d="M1757.03,586.66c-0.06-0.01-0.11-0.01-0.16-0.02C1756.94,586.65,1756.99,586.65,1757.03,586.66z"/>
	<path class="st15" d="M1756.52,586.59c-0.03,0-0.07-0.01-0.1-0.01C1756.45,586.58,1756.48,586.59,1756.52,586.59z"/>
	<path class="st15" d="M1756.86,586.64c-0.03,0-0.06-0.01-0.09-0.01C1756.8,586.63,1756.83,586.63,1756.86,586.64z"/>
	<path class="st15" d="M1738.52,520.52l-5.77-2.25c0,0,5.87,16.86,6.45,26.49s-6.45,20.23-6.45,20.23l11.42,6.38
		c0,0,8.09-20.04,12.74-23.58c4.65-3.54,11.6-4.77,16.14,2.32c4.54,7.08-0.97,26.44-7.49,33.2c-3,3.11-6.07,3.66-8.51,3.35
		c0,0,26.54,17.94,26.22,28.94c-0.08,2.61,1.38-6.45,3.81-13.73c2.92-8.77,4.54-12.82,7.45-21.95l3.22-15.98l-41.79-38.66
		L1738.52,520.52z"/>
	<path class="st15" d="M1756.42,586.58c-0.06-0.01-0.13-0.02-0.18-0.02C1756.3,586.56,1756.36,586.57,1756.42,586.58z"/>
	<path class="st15" d="M1756.24,586.56C1755.81,586.5,1755.5,586.46,1756.24,586.56L1756.24,586.56z"/>
</g>
<g id="Layer_8">
	<path class="st26" d="M168.56,588.32l-56.87,6.5c0,0-33.63,50.38-13.07,93.67c2.42,5.09,13.42,24.83,38.41,18.23
		c0.62-0.17,1.25-0.34,1.89-0.53c33.48-9.97,51.93-45.89,41.6-79.26L168.56,588.32z"/>
	<g id="XMLID_2_">
		<g>
			<path class="st26" d="M91.97,814.12c-0.21-0.74-0.29-1.02-0.31-1.02c-0.02,0.15,1.05,4.41,0.45,1.52
				C92.06,814.45,92.01,814.28,91.97,814.12z"/>
			<path class="st26" d="M122.73,739.64c-27,21.42-35.81,51.11-30.87,73.8c0.11,0.49,0.19,0.87,0.25,1.18
				c15.83,56.57,75.23,202.42,101.23,265.38h219.68L308.55,863.59c0,0-18.72-46.45,44.24-75.97l20.07-1.16
				c-77.5,0.25-107.77-59.84-118.54-61.93l-3.43-7.72l14.56-0.31c4.82-0.1,8.15-4.86,6.6-9.42c-0.11-0.32-1.16-1.07-2.19-1.76
				c-2.93-0.24-8.45-0.84-7.5-1.19c1.42-0.53-4.17-7.47-7.02-12.2c-1.95-3.24,21.85-10.38,21.48-13.34
				c-0.38-2.95,4.54-14.6,5.77-16.27c1.23-1.67,7.14-14.95,6.95-21.55c-0.02-0.83-0.08-2.1-0.26-3.73
				c-0.14-1.26-0.36-2.73-0.69-4.39C288.59,632.65,140.11,732.37,122.73,739.64z"/>
			<path class="st26" d="M269.86,705.33c1.09,0.09,1.82,0.13,1.73,0.09C265.89,702.76,267.83,703.95,269.86,705.33z"/>
			<path class="st26" d="M372.87,786.47c5.45-0.02,11.12-0.32,17.04-0.98L372.87,786.47z"/>
		</g>
		<g>
		</g>
	</g>
	<path class="st25" d="M266.66,594.14l-10.62,12.58l16.27,23.62l29.39-1.76c0,0-1.29-5.08-4-7.81s-2.58-5.08-1.31-7.07
		c2.72-4.25,9.2-10.39,9.2-10.39l2.6-1.09l-4.64-9.88L266.66,594.14z"/>
	<path class="st22" d="M304.47,600l-23.49,5.19l-5.04,5.51c0,0,0.13,1.15,2.01,1.28c0.14,0.01,4.5-1.44,4.5-1.44
		s0.19,0.54,0.36,0.62c1.49,0.64,6.4-1.27,6.4-1.27s0.05,0.17,0.18,0.22c1.33,0.56,5.89-0.84,5.89-0.84s0.14,0.32,0.38,0.4
		c1.35,0.44,5.64-1.12,5.64-1.12s0.01,0.16,0.18,0.23c0.65,0.26,2.14-0.34,3.18-0.83c0.65-0.31,1.01-1,0.91-1.71l-0.63-4.16
		L304.47,600z"/>
	<path class="st27" d="M474.06,712.34c-37.03-10.42-175.65-49.39-176.38-48.97l-46.81-20.19l13.73,54.29l79.75,97.04l126.93,12.64
		c6.81,1.55,13.93,0.93,20.37-1.76l188.48-78.79l22.49-72.45l-210.55,58.23C486.18,714.01,479.95,714,474.06,712.34z"/>
	<path class="st16" d="M728.91,603.45l-12.49,3c0,0-9.7-3.11-15.12-1.6c-2.56,0.71-15.29,16.32-17.31,17.82
		c-0.02,0.02-0.04,0.03-0.06,0.05c-4.26,3.17-7.84,7.17-10.54,11.74l-9.58,19.69c0,0-14.16,14.4-28.34,18.58
		c-7.08,2.09,10.55,27.59,10.55,27.59l53.75-30.83l3.13-26.31c0,0-2.06-3.88-2.39-6.05c-0.33-2.17,6.98-8.47,6.98-8.47l2.29-12.32
		c0,0,10.1,1.87,11.98,1.95c1.87,0.08,4.7-0.09,8.9-5.53C734.86,607.34,728.91,603.45,728.91,603.45z"/>
	<g>
		<path class="st25" d="M658.31,759.56l-20.8-13.77l-0.12,0.18l-20.8-13.77c-2.2-1.46-5.09-1-6.42,1.01l-18.04,27.25
			c-1.33,2.01-0.62,4.85,1.58,6.3l20.8,13.77l21,13.9c2.2,1.46,5.09,1,6.42-1.01L660.09,766
			C661.42,763.99,660.71,761.15,658.31,759.56z"/>
		<path class="st17" d="M725.63,621.34l-4-2.65l-3.92-2.33c-3-1.99-6.41-1.61-7.98,0.76l-7.26,10.97c-0.61,0.91-1.29,2.83-1.98,4.74
			l0.12-0.18c-15.56,29.15-46.07,47.88-46.07,47.88c-19.7,11.95-28.4,22.49-30.42,25.1l-44.38,66.62l-4.72,7.13
			c-0.73,1.1-0.73,2.41,0.03,3.44c3.91,6.27-15.22,18.2,20.24,24.28c0,0,1.91,0.01,2.11,0.14l0.38,0.37
			c11,7.28,22.97,9.15,30.38,10.11c1.36,0.11,2.57-0.4,3.17-1.32l4.52-7.26l43.98-66.88c1.62-2.88,7.92-15.01,11.42-37.68
			c0,0,5.19-35.22,26.07-61.12l-0.12,0.18c1.69-1.25,2.98-2.76,3.58-3.68l7.26-10.97C729.62,626.61,728.43,623.19,725.63,621.34z"/>
	</g>
	<path class="st16" d="M732.1,651.35L732.1,651.35c-2.01-1.38-4.29-2.32-6.7-2.74c-4.26-0.75-10.68-2-10.68-2l-0.85-0.18
		c-6.31-1.34-11.88,4.3-10.46,10.59l-0.34-0.05c-6.52-1.01-12.12,4.65-11.04,11.16c-4.87,1.88-6.95,7.64-4.41,12.2l0.56,1.01
		l-1.35,0.26c-4.58,0.9-7.1,5.84-5.15,10.08l9.7,12.17c0,0,8.33,5.92,11.33,5.99h0c6.48-0.2,11.48-5.78,10.97-12.25l-0.07-0.89
		l0.19-0.01c6.33-0.27,10.69-6.45,8.82-12.5c6.17-2.01,8.98-9.14,5.85-14.82l-1.32-2.4l3.65-1.61
		C736.56,662.81,737.3,654.92,732.1,651.35z"/>
	<polygon class="st27" points="180.44,781.52 289.33,1080 484.98,1080 334.29,740.02 	"/>
	<path class="st16" d="M646.88,794.94c-0.84,2.32-15.51,9.64-31.72,12.44c-16.21,2.79-32.59-4.05-36.58-11.7
		c-3.98-7.65,2.99-25.15,3.83-27.14c0.84-1.99-1.83-1.57-3.83-2.1c-1.99-0.52-4.87,4.66-6.81,5.47c-1.45,0.61-4.05,1.69-6.39,4.38
		c-2.34,2.68-6.39,17.92-7.96,22.11c-1.57,4.19-13.31,20.72-15.69,24.07c-2.38,3.35-15.72,7.55-15.72,7.55l-0.98,57.15
		c0,0,17.33-11.6,22.5-12.58c5.17-0.98,12.58,1.12,26.41,0s41.15-20.12,41.92-21.45s5.94-8.66,16.98-14.6
		c11.04-5.94,11.53-11.39,10.69-14.95c-0.84-3.56-1.47-6.71-1.47-6.71s4.82-5.1,7.55-7.48c2.72-2.38,1.96-9.43,1.75-11.88
		S647.72,792.61,646.88,794.94z"/>
	<path class="st26" d="M181,679.94c1.08-0.21,1.67-0.31,1.67-0.31S181.63,679.59,181,679.94z"/>
	<path class="st26" d="M393.09,864.13l-78.3-87.85c0,0-44.02-83.07-49.19-79.58c-5.17,3.49-21.97,6.95-31.03,7.58
		c-9.06,0.63-27.82-6.94-44.04-15.95c-10.49-5.83-10.7-7.76-9.54-8.4c-7.91,1.54-42.22,8.94-65.21,25.2
		c-24.87,17.59-35.07,74.53-23.82,108.98c17.52,53.62,74.94,121.81,145.08,163.06c32.52,19.12,71.67,23.44,107.58,11.89
		c73.61-23.67,192.56-60.06,192.56-61.24c0-1.68-11.18-97.81-11.18-97.81L393.09,864.13z"/>
	<path class="st27" d="M195.03,690.55L318.88,872.7c8.19,5.57,18.43,7.23,27.96,4.53l46.25-13.1L276.72,643.18L195.03,690.55z"/>
	<g id="XMLID_4_">
		<g>
			<path class="st20" d="M297.69,562.17c-2.46,1.04-5.98,11.55-17.05,10.9c-11.08-0.65-21.04-10.14-68.86,7.72
				c-36.72,13.72-47.87,21.56-55.81,22.48c-8.36-13.91-16.81-30.53-18.58-43.93c-2.51-19.05,21.56-92.76,61.18-85.24
				c39.61,7.53,47.63,13.04,47.63,13.04s18.55,6.52,24.57,11.54c6.01,5.01,11.6,3.39,15.1,9.41c3.51,6.02,10.35,26.19,11.47,29.2
				c2.21,5.91-0.89,12.72,0.29,16.42c0.75,2.35,4.81,7.65,8.35,12.06C305.27,565.05,300.85,560.83,297.69,562.17z"/>
			<path class="st16" d="M280.64,573.07c11.08,0.65,14.59-9.86,17.05-10.9c3.16-1.33,7.58,2.88,8.28,3.58
				c2.52,3.13,4.78,5.79,5.41,6.62c1.5,2.01,4.01,6.02,0,10.04c-4.02,4.01-7.65,5.17-7.65,5.17s3.09,3.22,4.07,4.74
				c1.4,2.16,3.57,9.64-2.45,10.64c-6.01,1.01-24.57,1.51-29.58,6.02c0,0-2.51,2.51-3.01,3.01s5.01,5.01,7.02,6.52
				c2,1.5,14.2,9.01,16.71,9.01s4.35-1.49,4.35-2.5s-1.35-2.59-1.35-2.59s2.62,1.44,3.63,3.45c1,2.01-0.78,6.16,0.23,9.68
				c1.01,3.5,4.55,10.5,4.51,14.04c-0.04,4.39-4.01,18.55-17.55,19.56c-13.54,1-21.7,0.86-30.88-3.52c-2.31-1.11,2.8,5.53,0.8,9.54
				c-2.01,4.01-3.93,10.09-1.93,13.61c2,3.51,6.44,7.95,6.44,7.95s-4.37,3.6-26.07,7.52c-24.88,4.5-63.17-15.04-69.7-21.56
				c0,0,6.52-9.53,7.52-20.06c1.01-10.53-0.5-28.58-10.53-43.62c-2.98-4.46-6.48-9.86-10-15.74c7.95-0.92,19.09-8.76,55.81-22.48
				C259.6,562.92,269.55,572.42,280.64,573.07z"/>
		</g>
		<g>
		</g>
	</g>
	<path class="st20" d="M289.23,585.27c-1.01-0.81-1.6-1.76-1.9-3.62c-0.29-1.8,0.71-5.36,0.71-5.36c-3.76,1.8-4.64,6.28-3.35,8.24
		c1.28,1.96,3.34,2.74,5.75,3.2c2.41,0.45,3.34-0.96,3.04-0.99S290.91,586.62,289.23,585.27z"/>
	<g>
		<path class="st25" d="M277.76,552.25c-1.75,0.13-3.97,0.56-7.49,1.82c-3.52,1.26-10.44,4.38-10.75,4.38c0,0,8.82-2.13,11.29-2.75
			c3.66-0.93,5.86-0.98,7.77-2.21C278.89,553.29,279.52,552.12,277.76,552.25z"/>
		<path class="st25" d="M274.32,553.28c-1.54,0-2.22,1.32-2.22,2.86c0,1.54,0.68,2.72,2.22,2.72s2.53-1.25,2.53-2.79
			S275.86,553.28,274.32,553.28z"/>
	</g>
	<path class="st25" d="M278.47,532.7c-2.89,0.57-9.11,1.1-13.43,2.44c-2.22,0.69-12.26,5.62-15.92,9.53
		c-2.36,2.52-0.88,3.2,1.13,2.01c2.01-1.19,12.85-7.1,15.65-7.98c1.98-0.62,8.92-0.86,11.99-0.79c3.07,0.06,5.36-0.06,5.8-1.16
		c0.24-0.61-1.6-2.57-1.94-2.98C280.94,532.75,279.73,532.45,278.47,532.7z"/>
	<path class="st20" d="M300.86,622.99c-1.18-1.2-3.51-2.6-3.51-2.6s3.04,3.98,3.04,5.07s-1.99,2.16-5.26,1.5
		c-3.98-0.8-17.53-10.39-19.47-12.03c-1.94-1.64-2.74-2.66-2.74-2.66s-1.6,0.28,1.09,3.47c2.7,3.2,14.54,15.42,18.8,17.24
		c4.26,1.82,5.93,1.59,8.7,0.55c2.91-1.1,3.21-3.09,2.89-5.04C303.98,625.94,302.04,624.19,300.86,622.99z"/>
	<path class="st20" d="M284.13,602.58c-4.74,2.28-9.5,6.4-11.23,8.87c-0.44,0.63-0.8,1.35-0.26,2.3c0.17,0.3,0.08-0.62,0.08-0.62
		c0.33-0.07,6.53-4.86,12.84-6.61c6.09-1.69,17.8-2.06,20.18-2.81c2.32-0.73,3.1-2.03,3.43-3.93
		C310.14,594.24,293.53,598.05,284.13,602.58z"/>
	<path class="st26" d="M224.14,449.58c-6.97-0.88-30.67,6.76-50.87,14.23s-36.03,15.87-44.12,21.55
		c-9.37,6.58-33.26,22.8-27.59,37.79l23.1,50.98c0,0,55.4-50.74,63.85-54.03c8.45-3.29,67.14-19.27,76.54-18.67
		c9.4,0.6,9.41-4.68,9.41-4.68S237.41,451.25,224.14,449.58z"/>
	<path class="st28" d="M196.22,455.85c-14.52,3.93-35.5,12.94-35.5,12.94c-0.79,0.34-37.95,19.85-37.93,33
		c0.01,8.26,10.86,10.77,15.95,10.06c6.95-0.97,48.25-22.76,57.16-31.68s11.66-15.99,12.73-19.88
		C210.14,454.82,210.14,452.08,196.22,455.85z"/>
	<path class="st28" d="M197.64,610.91c0.08-0.01,0.15-0.01,0.22-0.02C197.77,610.9,197.7,610.9,197.64,610.91z"/>
	<path class="st28" d="M197.58,610.91c0.02,0,0.04,0,0.06,0C197.62,610.91,197.6,610.91,197.58,610.91z"/>
	<path class="st28" d="M197.47,610.92c0.04,0,0.07-0.01,0.11-0.01C197.51,610.92,197.47,610.92,197.47,610.92z"/>
	<path class="st28" d="M228.06,535.55l-6.57,2.24l-19.77,4.47l-49.25,44.49v9.75c2.34,15,10.57,28.79,19.37,41.16
		c2.06,2.89,3.38,4.39,2.94,2.78c-5.06-18.59,22.7-29.51,22.7-29.51c-2.74,0.23-6.15-0.54-9.36-4.17
		c-6.97-7.89-12.18-29.84-6.75-37.54c5.43-7.71,13.16-5.99,18.19-1.8s11.04,22.42,11.04,22.42l13.21-5.09c0,0-5.38-9.08-4.26-19.84
		S228.06,535.55,228.06,535.55z"/>
	<path class="st28" d="M197.85,610.89c0.3-0.03,0.69-0.06,0.9-0.08C198.61,610.83,198.33,610.85,197.85,610.89z"/>
	<path class="st28" d="M198.75,610.81C198.95,610.8,198.91,610.8,198.75,610.81L198.75,610.81z"/>
	<path class="st20" d="M258.72,679.8c1.07-2.8,2.36-5.17,2.6-7.49c0.2-1.96-0.99-5.28-1.32-6.18c-0.06-0.17-0.17-0.3-0.33-0.39
		c-3.22-1.81-37.04-18.46-42.45-26.92c-2.59-4.05-3.13-17.27-2.32-24.98c0.09-0.85-1.85,0.15-2.16,0.95
		c-5.1,13.19-6.39,26.52-0.89,39.29c6.18,14.37,34.56,29.9,39.01,33.07c4,2.84,13.89,9.57,13.88,9.56
		c-0.56-1.36-6.94-9.03-7.17-11.48C257.38,683.21,257.83,682.14,258.72,679.8z"/>
	<path class="st26" d="M346.06,487.35c-12.68,3.42-48.46,7.79-64.1,7.22c-15.64-0.57-46.08-1.28-81.34,16.64
		c-35.26,17.93-92.02,63.35-103.15,110.25c-11.13,46.89-3.35,67.56,5.35,70.61c8.7,3.05,30.82-6.89,35.77-14.81
		c4.94-7.92,0.04-30.17,7.91-51.83c7.36-20.25,31.03-79.96,101.32-94.81c18.66-3.94,38.59,1.78,59.46-5.82
		c20.87-7.6,62.54-32.42,61.18-37.6C367.09,482.03,358.73,483.92,346.06,487.35z"/>
	<path class="st18" d="M1715.82,492.27c-39.98-8.12-70.04,0.95-85.43,5.82c-15.39,4.87-52.15,10.36-65.7,10.45s-22.37,0.5-22.3,6.02
		c0.07,5.52,48.32,18.74,71.15,20.55c22.83,1.81,41.06-9.35,60.7-10.56c73.95-4.57,113.9,48.27,126.78,66.38
		c13.78,19.37,15.02,42.83,22.11,49.34s31.81,10.31,39.62,4.88c7.81-5.43,13.16-37.78-11.95-70.45
		C1820.52,535.29,1755.79,500.39,1715.82,492.27z"/>
	<path class="st27" d="M258.19,699.59c-4.09,1.35,10.98,2.66,10.98,2.66l0.71-8.21l-9.49-3.58
		C260.39,690.46,264.6,697.47,258.19,699.59z"/>
</g>
<g id="баблы_3_ок">
	<path class="st29" d="M707.95,383.69H473.07c-15.27,0-27.65,12.38-27.65,27.65v12.86v12.86c0,0.04,0,0.07,0,0.1v29.98
		c0.69,26.76-7.63,25.79-20.87,28.38c-2.13,0.42-2.48,2.12-1.52,3.72c1.78,2.93,17.07,2.82,28.42,0.56
		c4.26-0.85,53.31-13.66,68.08-14.02c10.21-0.25,76.47-0.15,116.45-0.07c19.3,0.04,37.82-7.52,51.58-21.01h20.37
		c15.27,0,27.65-12.38,27.65-27.65v-25.72C735.59,396.07,723.22,383.69,707.95,383.69z"/>
	<path class="st29" d="M1535.19,426.4c-0.13-20.77-15.53-37.57-34.51-37.57h-115.69h-12.96c-14.36,0-26.8,6.47-32.03,19.92
		c-2.91,7.49-2.04,15.6-0.3,23.47c1.91,8.65,5.39,18.64,10.78,28.35c10.93,19.7,29.77,38.31,59.59,42.6
		c3.52,0.51,7.18,0.82,11.01,0.91c21.19,0.48,51.92-0.64,57.21-0.58c0,0,11.85-0.9,18.7,8.87c6.85,9.77,18.09,20.7,21.42,19.72
		c1.81-0.53,2.68-2.04,1.44-3.91c-9.72-14.58,1.13-30.54,7.15-37.59c0.15-0.17,0.3-0.4,0.45-0.66c4.26-6.29,7.77-14.37,7.77-22.78
		v-38.62l0,0C1535.19,427.82,1535.19,427.1,1535.19,426.4z"/>
	<g id="text2">
		<text transform="matrix(1 0 0 1 1363.3824 423.2461)"><tspan x="0" y="0" class="st30 st31 st32">ТОЧНО, ДАВАЙ</tspan><tspan x="18.47" y="28" class="st30 st31 st32">ВСТРЕЧАТЬ</tspan><tspan x="35.69" y="56" class="st30 st31 st32">НОВЫЙ!</tspan></text>
	</g>
	<g id="text1">
		<text transform="matrix(1 0 0 1 475.8971 421.9261)"><tspan x="0" y="0" class="st30 st31 st32">ЭТОТ ГОД СЛИШКОМ</tspan><tspan x="-16.68" y="28" class="st30 st31 st32">ТЕСЕН ДЛЯ НАС ДВОИХ!</tspan></text>
	</g>
</g>
</svg>
